<svg width="336" height="58" viewBox="0 0 336 58" fill="none" xmlns="http://www.w3.org/2000/svg">
<path d="M0 29C0 12.9837 12.9837 0 29 0H307C323.016 0 336 12.9837 336 29C336 45.0163 323.016 58 307 58H29C12.9838 58 0 45.0163 0 29Z" fill="#FF2ECC"/>
<path d="M31.5007 37C31.1807 37 30.9087 36.896 30.6847 36.688C30.4767 36.464 30.3727 36.192 30.3727 35.872V19.384C30.3727 19.048 30.4767 18.776 30.6847 18.568C30.9087 18.36 31.1807 18.256 31.5007 18.256H35.8927C37.0767 18.256 38.1247 18.504 39.0367 19C39.9647 19.496 40.6847 20.184 41.1967 21.064C41.7247 21.944 41.9887 22.96 41.9887 24.112C41.9887 25.2 41.7247 26.168 41.1967 27.016C40.6847 27.864 39.9647 28.528 39.0367 29.008C38.1247 29.488 37.0767 29.728 35.8927 29.728H32.6287V35.872C32.6287 36.192 32.5247 36.464 32.3167 36.688C32.1087 36.896 31.8367 37 31.5007 37ZM41.4847 37C41.2767 37 41.0927 36.96 40.9327 36.88C40.7727 36.784 40.6287 36.64 40.5007 36.448L36.0847 29.344L38.2927 28.72L42.3727 35.272C42.6447 35.704 42.6847 36.104 42.4927 36.472C42.3007 36.824 41.9647 37 41.4847 37ZM32.6287 27.616H35.8927C36.6607 27.616 37.3327 27.472 37.9087 27.184C38.5007 26.88 38.9647 26.464 39.3007 25.936C39.6367 25.392 39.8047 24.784 39.8047 24.112C39.8047 23.376 39.6367 22.728 39.3007 22.168C38.9647 21.592 38.5007 21.152 37.9087 20.848C37.3327 20.528 36.6607 20.368 35.8927 20.368H32.6287V27.616ZM51.2755 37.096C49.9475 37.096 48.7715 36.816 47.7475 36.256C46.7395 35.68 45.9475 34.896 45.3715 33.904C44.7955 32.896 44.5075 31.744 44.5075 30.448C44.5075 29.136 44.7795 27.984 45.3235 26.992C45.8675 25.984 46.6195 25.2 47.5795 24.64C48.5395 24.064 49.6515 23.776 50.9155 23.776C52.1475 23.776 53.2115 24.056 54.1075 24.616C55.0035 25.16 55.6915 25.92 56.1715 26.896C56.6515 27.856 56.8915 28.968 56.8915 30.232C56.8915 30.504 56.7955 30.736 56.6035 30.928C56.4275 31.104 56.1875 31.192 55.8835 31.192H46.0195V29.416H55.9075L54.9235 30.112C54.9075 29.264 54.7395 28.504 54.4195 27.832C54.0995 27.16 53.6435 26.632 53.0515 26.248C52.4595 25.864 51.7475 25.672 50.9155 25.672C50.0035 25.672 49.2115 25.88 48.5395 26.296C47.8835 26.712 47.3795 27.28 47.0275 28C46.6755 28.72 46.4995 29.536 46.4995 30.448C46.4995 31.36 46.6995 32.176 47.0995 32.896C47.5155 33.6 48.0755 34.16 48.7795 34.576C49.4995 34.992 50.3315 35.2 51.2755 35.2C51.7875 35.2 52.3155 35.104 52.8595 34.912C53.4195 34.72 53.8595 34.496 54.1795 34.24C54.4035 34.064 54.6435 33.976 54.8995 33.976C55.1555 33.96 55.3795 34.032 55.5715 34.192C55.8115 34.416 55.9395 34.664 55.9555 34.936C55.9715 35.192 55.8595 35.416 55.6195 35.608C55.0755 36.04 54.3955 36.4 53.5795 36.688C52.7795 36.96 52.0115 37.096 51.2755 37.096ZM64.7195 37.096C63.6635 37.096 62.6635 36.936 61.7195 36.616C60.7755 36.28 60.0315 35.824 59.4875 35.248C59.2795 35.008 59.1915 34.744 59.2235 34.456C59.2555 34.168 59.3995 33.92 59.6555 33.712C59.9275 33.504 60.2075 33.416 60.4955 33.448C60.7835 33.48 61.0235 33.608 61.2155 33.832C61.5355 34.184 61.9995 34.488 62.6075 34.744C63.2315 35 63.9115 35.128 64.6475 35.128C65.6875 35.128 66.4555 34.96 66.9515 34.624C67.4635 34.272 67.7275 33.84 67.7435 33.328C67.7435 32.8 67.4955 32.36 66.9995 32.008C66.5035 31.64 65.6315 31.352 64.3835 31.144C62.7675 30.84 61.5915 30.368 60.8555 29.728C60.1195 29.088 59.7515 28.312 59.7515 27.4C59.7515 26.584 59.9755 25.912 60.4235 25.384C60.8875 24.84 61.4875 24.44 62.2235 24.184C62.9755 23.912 63.7675 23.776 64.5995 23.776C65.6555 23.776 66.5835 23.952 67.3835 24.304C68.1835 24.64 68.8235 25.112 69.3035 25.72C69.5115 25.96 69.5995 26.208 69.5675 26.464C69.5515 26.72 69.4235 26.936 69.1835 27.112C68.9435 27.256 68.6635 27.304 68.3435 27.256C68.0395 27.208 67.7835 27.072 67.5755 26.848C67.1755 26.432 66.7275 26.144 66.2315 25.984C65.7515 25.808 65.1915 25.72 64.5515 25.72C63.7835 25.72 63.1435 25.864 62.6315 26.152C62.1355 26.44 61.8875 26.832 61.8875 27.328C61.8875 27.648 61.9675 27.928 62.1275 28.168C62.3035 28.408 62.6235 28.632 63.0875 28.84C63.5515 29.032 64.2155 29.208 65.0795 29.368C66.2795 29.592 67.2235 29.888 67.9115 30.256C68.6155 30.624 69.1195 31.056 69.4235 31.552C69.7275 32.048 69.8795 32.608 69.8795 33.232C69.8795 33.968 69.6715 34.632 69.2555 35.224C68.8555 35.8 68.2715 36.256 67.5035 36.592C66.7355 36.928 65.8075 37.096 64.7195 37.096ZM74.1038 42.616C73.7838 42.616 73.5198 42.512 73.3118 42.304C73.1038 42.096 72.9998 41.832 72.9998 41.512V30.4C73.0158 29.152 73.3118 28.024 73.8878 27.016C74.4798 26.008 75.2718 25.216 76.2638 24.64C77.2558 24.064 78.3758 23.776 79.6238 23.776C80.8878 23.776 82.0158 24.072 83.0078 24.664C84.0158 25.24 84.8078 26.032 85.3838 27.04C85.9758 28.032 86.2718 29.168 86.2718 30.448C86.2718 31.712 85.9918 32.848 85.4318 33.856C84.8878 34.864 84.1438 35.656 83.1998 36.232C82.2558 36.808 81.1918 37.096 80.0078 37.096C78.9998 37.096 78.0878 36.888 77.2718 36.472C76.4558 36.056 75.7678 35.496 75.2078 34.792V41.512C75.2078 41.832 75.1038 42.096 74.8958 42.304C74.7038 42.512 74.4398 42.616 74.1038 42.616ZM79.6238 35.128C80.4718 35.128 81.2318 34.928 81.9038 34.528C82.5918 34.112 83.1278 33.552 83.5118 32.848C83.9118 32.128 84.1118 31.328 84.1118 30.448C84.1118 29.552 83.9118 28.752 83.5118 28.048C83.1278 27.328 82.5918 26.768 81.9038 26.368C81.2318 25.952 80.4718 25.744 79.6238 25.744C78.7758 25.744 78.0078 25.952 77.3198 26.368C76.6478 26.784 76.1198 27.344 75.7358 28.048C75.3518 28.752 75.1598 29.552 75.1598 30.448C75.1598 31.328 75.3518 32.128 75.7358 32.848C76.1198 33.552 76.6478 34.112 77.3198 34.528C78.0078 34.928 78.7758 35.128 79.6238 35.128ZM95.8737 37.096C94.5937 37.096 93.4497 36.816 92.4417 36.256C91.4497 35.68 90.6657 34.896 90.0897 33.904C89.5297 32.896 89.2497 31.744 89.2497 30.448C89.2497 29.136 89.5297 27.984 90.0897 26.992C90.6657 25.984 91.4497 25.2 92.4417 24.64C93.4497 24.064 94.5937 23.776 95.8737 23.776C97.1537 23.776 98.2897 24.064 99.2817 24.64C100.29 25.2 101.074 25.984 101.634 26.992C102.21 27.984 102.506 29.136 102.522 30.448C102.522 31.744 102.234 32.896 101.658 33.904C101.082 34.896 100.298 35.68 99.3057 36.256C98.3137 36.816 97.1697 37.096 95.8737 37.096ZM95.8737 35.128C96.7537 35.128 97.5297 34.928 98.2017 34.528C98.8737 34.128 99.4017 33.576 99.7857 32.872C100.17 32.168 100.362 31.36 100.362 30.448C100.362 29.536 100.17 28.728 99.7857 28.024C99.4017 27.304 98.8737 26.744 98.2017 26.344C97.5297 25.944 96.7537 25.744 95.8737 25.744C95.0097 25.744 94.2337 25.944 93.5457 26.344C92.8737 26.744 92.3457 27.304 91.9617 28.024C91.5777 28.728 91.3857 29.536 91.3857 30.448C91.3857 31.36 91.5777 32.168 91.9617 32.872C92.3457 33.576 92.8737 34.128 93.5457 34.528C94.2337 34.928 95.0097 35.128 95.8737 35.128ZM117.3 37.024C116.98 37.024 116.708 36.92 116.484 36.712C116.276 36.488 116.172 36.224 116.172 35.92V29.872C116.172 28.928 115.996 28.16 115.644 27.568C115.292 26.96 114.82 26.512 114.228 26.224C113.636 25.92 112.956 25.768 112.188 25.768C111.468 25.768 110.82 25.912 110.244 26.2C109.668 26.488 109.204 26.872 108.852 27.352C108.516 27.832 108.348 28.384 108.348 29.008H106.908C106.924 28 107.18 27.104 107.676 26.32C108.172 25.52 108.844 24.896 109.692 24.448C110.54 23.984 111.492 23.752 112.548 23.752C113.668 23.752 114.668 23.992 115.548 24.472C116.428 24.936 117.124 25.624 117.636 26.536C118.148 27.448 118.404 28.56 118.404 29.872V35.92C118.404 36.224 118.292 36.488 118.068 36.712C117.86 36.92 117.604 37.024 117.3 37.024ZM107.244 37.024C106.924 37.024 106.66 36.92 106.452 36.712C106.244 36.504 106.14 36.24 106.14 35.92V24.976C106.14 24.64 106.244 24.376 106.452 24.184C106.66 23.976 106.924 23.872 107.244 23.872C107.58 23.872 107.844 23.976 108.036 24.184C108.244 24.376 108.348 24.64 108.348 24.976V35.92C108.348 36.24 108.244 36.504 108.036 36.712C107.844 36.92 107.58 37.024 107.244 37.024ZM128.405 37.096C127.157 37.096 126.029 36.808 125.021 36.232C124.029 35.64 123.237 34.84 122.645 33.832C122.069 32.824 121.781 31.688 121.781 30.424C121.781 29.16 122.053 28.032 122.597 27.04C123.141 26.032 123.885 25.24 124.829 24.664C125.773 24.072 126.845 23.776 128.045 23.776C129.037 23.776 129.941 23.984 130.757 24.4C131.589 24.816 132.277 25.376 132.821 26.08V19.36C132.821 19.024 132.925 18.76 133.133 18.568C133.341 18.36 133.605 18.256 133.925 18.256C134.261 18.256 134.533 18.36 134.741 18.568C134.949 18.76 135.053 19.024 135.053 19.36V30.472C135.037 31.72 134.733 32.848 134.141 33.856C133.565 34.864 132.773 35.656 131.765 36.232C130.773 36.808 129.653 37.096 128.405 37.096ZM128.405 35.128C129.269 35.128 130.037 34.928 130.709 34.528C131.381 34.112 131.909 33.552 132.293 32.848C132.693 32.128 132.893 31.32 132.893 30.424C132.893 29.528 132.693 28.728 132.293 28.024C131.909 27.32 131.381 26.768 130.709 26.368C130.037 25.952 129.269 25.744 128.405 25.744C127.573 25.744 126.813 25.952 126.125 26.368C125.437 26.768 124.893 27.32 124.493 28.024C124.109 28.728 123.917 29.528 123.917 30.424C123.917 31.32 124.109 32.128 124.493 32.848C124.893 33.552 125.437 34.112 126.125 34.528C126.813 34.928 127.573 35.128 128.405 35.128ZM145.471 37.096C144.143 37.096 142.967 36.816 141.943 36.256C140.935 35.68 140.143 34.896 139.567 33.904C138.991 32.896 138.703 31.744 138.703 30.448C138.703 29.136 138.975 27.984 139.519 26.992C140.063 25.984 140.815 25.2 141.775 24.64C142.735 24.064 143.847 23.776 145.111 23.776C146.343 23.776 147.407 24.056 148.303 24.616C149.199 25.16 149.887 25.92 150.367 26.896C150.847 27.856 151.087 28.968 151.087 30.232C151.087 30.504 150.991 30.736 150.799 30.928C150.623 31.104 150.383 31.192 150.079 31.192H140.215V29.416H150.103L149.119 30.112C149.103 29.264 148.935 28.504 148.615 27.832C148.295 27.16 147.839 26.632 147.247 26.248C146.655 25.864 145.943 25.672 145.111 25.672C144.199 25.672 143.407 25.88 142.735 26.296C142.079 26.712 141.575 27.28 141.223 28C140.871 28.72 140.695 29.536 140.695 30.448C140.695 31.36 140.895 32.176 141.295 32.896C141.711 33.6 142.271 34.16 142.975 34.576C143.695 34.992 144.527 35.2 145.471 35.2C145.983 35.2 146.511 35.104 147.055 34.912C147.615 34.72 148.055 34.496 148.375 34.24C148.599 34.064 148.839 33.976 149.095 33.976C149.351 33.96 149.575 34.032 149.767 34.192C150.007 34.416 150.135 34.664 150.151 34.936C150.167 35.192 150.055 35.416 149.815 35.608C149.271 36.04 148.591 36.4 147.775 36.688C146.975 36.96 146.207 37.096 145.471 37.096ZM155.219 28.84C155.251 27.864 155.499 26.992 155.963 26.224C156.443 25.456 157.075 24.848 157.859 24.4C158.643 23.952 159.507 23.728 160.451 23.728C161.331 23.728 161.987 23.864 162.419 24.136C162.867 24.408 163.035 24.752 162.923 25.168C162.875 25.408 162.779 25.584 162.635 25.696C162.491 25.792 162.323 25.848 162.131 25.864C161.939 25.864 161.731 25.848 161.507 25.816C160.531 25.656 159.659 25.68 158.891 25.888C158.123 26.096 157.515 26.456 157.067 26.968C156.619 27.48 156.395 28.104 156.395 28.84H155.219ZM155.291 37C154.955 37 154.691 36.912 154.499 36.736C154.307 36.544 154.211 36.272 154.211 35.92V24.952C154.211 24.616 154.307 24.352 154.499 24.16C154.691 23.968 154.955 23.872 155.291 23.872C155.659 23.872 155.931 23.968 156.107 24.16C156.299 24.336 156.395 24.6 156.395 24.952V35.92C156.395 36.256 156.299 36.52 156.107 36.712C155.931 36.904 155.659 37 155.291 37ZM178.225 37.096C177.025 37.096 175.953 36.808 175.009 36.232C174.065 35.656 173.321 34.864 172.777 33.856C172.233 32.848 171.961 31.712 171.961 30.448C171.961 29.168 172.249 28.032 172.825 27.04C173.417 26.032 174.209 25.24 175.201 24.664C176.209 24.072 177.337 23.776 178.585 23.776C179.849 23.776 180.977 24.072 181.969 24.664C182.961 25.24 183.745 26.032 184.321 27.04C184.913 28.048 185.217 29.184 185.233 30.448L184.369 30.664C184.369 31.88 184.097 32.976 183.553 33.952C183.009 34.928 182.273 35.696 181.345 36.256C180.433 36.816 179.393 37.096 178.225 37.096ZM178.585 35.128C179.449 35.128 180.217 34.928 180.889 34.528C181.561 34.112 182.089 33.552 182.473 32.848C182.873 32.128 183.073 31.328 183.073 30.448C183.073 29.552 182.873 28.752 182.473 28.048C182.089 27.328 181.561 26.768 180.889 26.368C180.217 25.952 179.449 25.744 178.585 25.744C177.753 25.744 176.993 25.952 176.305 26.368C175.617 26.768 175.073 27.328 174.673 28.048C174.289 28.752 174.097 29.552 174.097 30.448C174.097 31.328 174.289 32.128 174.673 32.848C175.073 33.552 175.617 34.112 176.305 34.528C176.993 34.928 177.753 35.128 178.585 35.128ZM184.105 37.024C183.785 37.024 183.521 36.92 183.313 36.712C183.105 36.504 183.001 36.24 183.001 35.92V32.08L183.457 29.776L185.233 30.448V35.92C185.233 36.24 185.121 36.504 184.897 36.712C184.689 36.92 184.425 37.024 184.105 37.024ZM196.987 42.616C196.667 42.616 196.403 42.512 196.195 42.304C195.987 42.096 195.883 41.832 195.883 41.512V30.4C195.899 29.152 196.195 28.024 196.771 27.016C197.363 26.008 198.155 25.216 199.147 24.64C200.139 24.064 201.259 23.776 202.507 23.776C203.771 23.776 204.899 24.072 205.891 24.664C206.899 25.24 207.691 26.032 208.267 27.04C208.859 28.032 209.155 29.168 209.155 30.448C209.155 31.712 208.875 32.848 208.315 33.856C207.771 34.864 207.027 35.656 206.083 36.232C205.139 36.808 204.075 37.096 202.891 37.096C201.883 37.096 200.971 36.888 200.155 36.472C199.339 36.056 198.651 35.496 198.091 34.792V41.512C198.091 41.832 197.987 42.096 197.779 42.304C197.587 42.512 197.323 42.616 196.987 42.616ZM202.507 35.128C203.355 35.128 204.115 34.928 204.787 34.528C205.475 34.112 206.011 33.552 206.395 32.848C206.795 32.128 206.995 31.328 206.995 30.448C206.995 29.552 206.795 28.752 206.395 28.048C206.011 27.328 205.475 26.768 204.787 26.368C204.115 25.952 203.355 25.744 202.507 25.744C201.659 25.744 200.891 25.952 200.203 26.368C199.531 26.784 199.003 27.344 198.619 28.048C198.235 28.752 198.043 29.552 198.043 30.448C198.043 31.328 198.235 32.128 198.619 32.848C199.003 33.552 199.531 34.112 200.203 34.528C200.891 34.928 201.659 35.128 202.507 35.128ZM218.901 37.096C217.573 37.096 216.397 36.816 215.373 36.256C214.365 35.68 213.573 34.896 212.997 33.904C212.421 32.896 212.133 31.744 212.133 30.448C212.133 29.136 212.405 27.984 212.949 26.992C213.493 25.984 214.245 25.2 215.205 24.64C216.165 24.064 217.277 23.776 218.541 23.776C219.773 23.776 220.837 24.056 221.733 24.616C222.629 25.16 223.317 25.92 223.797 26.896C224.277 27.856 224.517 28.968 224.517 30.232C224.517 30.504 224.421 30.736 224.229 30.928C224.053 31.104 223.813 31.192 223.509 31.192H213.645V29.416H223.533L222.549 30.112C222.533 29.264 222.365 28.504 222.045 27.832C221.725 27.16 221.269 26.632 220.677 26.248C220.085 25.864 219.373 25.672 218.541 25.672C217.629 25.672 216.837 25.88 216.165 26.296C215.509 26.712 215.005 27.28 214.653 28C214.301 28.72 214.125 29.536 214.125 30.448C214.125 31.36 214.325 32.176 214.725 32.896C215.141 33.6 215.701 34.16 216.405 34.576C217.125 34.992 217.957 35.2 218.901 35.2C219.413 35.2 219.941 35.104 220.485 34.912C221.045 34.72 221.485 34.496 221.805 34.24C222.029 34.064 222.269 33.976 222.525 33.976C222.781 33.96 223.005 34.032 223.197 34.192C223.437 34.416 223.565 34.664 223.581 34.936C223.597 35.192 223.485 35.416 223.245 35.608C222.701 36.04 222.021 36.4 221.205 36.688C220.405 36.96 219.637 37.096 218.901 37.096ZM232.344 37.096C231.288 37.096 230.288 36.936 229.344 36.616C228.4 36.28 227.656 35.824 227.112 35.248C226.904 35.008 226.816 34.744 226.848 34.456C226.88 34.168 227.024 33.92 227.28 33.712C227.552 33.504 227.832 33.416 228.12 33.448C228.408 33.48 228.648 33.608 228.84 33.832C229.16 34.184 229.624 34.488 230.232 34.744C230.856 35 231.536 35.128 232.272 35.128C233.312 35.128 234.08 34.96 234.576 34.624C235.088 34.272 235.352 33.84 235.368 33.328C235.368 32.8 235.12 32.36 234.624 32.008C234.128 31.64 233.256 31.352 232.008 31.144C230.392 30.84 229.216 30.368 228.48 29.728C227.744 29.088 227.376 28.312 227.376 27.4C227.376 26.584 227.6 25.912 228.048 25.384C228.512 24.84 229.112 24.44 229.848 24.184C230.6 23.912 231.392 23.776 232.224 23.776C233.28 23.776 234.208 23.952 235.008 24.304C235.808 24.64 236.448 25.112 236.928 25.72C237.136 25.96 237.224 26.208 237.192 26.464C237.176 26.72 237.048 26.936 236.808 27.112C236.568 27.256 236.288 27.304 235.968 27.256C235.664 27.208 235.408 27.072 235.2 26.848C234.8 26.432 234.352 26.144 233.856 25.984C233.376 25.808 232.816 25.72 232.176 25.72C231.408 25.72 230.768 25.864 230.256 26.152C229.76 26.44 229.512 26.832 229.512 27.328C229.512 27.648 229.592 27.928 229.752 28.168C229.928 28.408 230.248 28.632 230.712 28.84C231.176 29.032 231.84 29.208 232.704 29.368C233.904 29.592 234.848 29.888 235.536 30.256C236.24 30.624 236.744 31.056 237.048 31.552C237.352 32.048 237.504 32.608 237.504 33.232C237.504 33.968 237.296 34.632 236.88 35.224C236.48 35.8 235.896 36.256 235.128 36.592C234.36 36.928 233.432 37.096 232.344 37.096ZM252.097 42.616C251.777 42.616 251.513 42.512 251.305 42.304C251.097 42.096 250.993 41.832 250.993 41.512V34.792C250.449 35.496 249.761 36.056 248.929 36.472C248.113 36.888 247.209 37.096 246.217 37.096C245.017 37.096 243.945 36.808 243.001 36.232C242.057 35.656 241.313 34.864 240.769 33.856C240.225 32.848 239.953 31.712 239.953 30.448C239.953 29.184 240.241 28.048 240.817 27.04C241.393 26.032 242.185 25.24 243.193 24.664C244.201 24.072 245.337 23.776 246.601 23.776C247.833 23.776 248.945 24.064 249.937 24.64C250.945 25.216 251.737 26.008 252.313 27.016C252.905 28.024 253.209 29.152 253.225 30.4V41.512C253.225 41.832 253.121 42.096 252.913 42.304C252.705 42.512 252.433 42.616 252.097 42.616ZM246.577 35.128C247.441 35.128 248.209 34.928 248.881 34.528C249.553 34.112 250.081 33.552 250.465 32.848C250.865 32.128 251.065 31.328 251.065 30.448C251.065 29.552 250.865 28.752 250.465 28.048C250.081 27.328 249.553 26.768 248.881 26.368C248.209 25.952 247.441 25.744 246.577 25.744C245.745 25.744 244.985 25.952 244.297 26.368C243.609 26.768 243.065 27.328 242.665 28.048C242.281 28.752 242.089 29.552 242.089 30.448C242.089 31.328 242.281 32.128 242.665 32.848C243.065 33.552 243.609 34.112 244.297 34.528C244.985 34.928 245.745 35.128 246.577 35.128ZM263.139 37.12C262.019 37.12 261.019 36.888 260.139 36.424C259.259 35.944 258.563 35.248 258.051 34.336C257.539 33.424 257.283 32.312 257.283 31V24.952C257.283 24.648 257.387 24.392 257.595 24.184C257.819 23.96 258.083 23.848 258.387 23.848C258.707 23.848 258.971 23.96 259.179 24.184C259.403 24.392 259.515 24.648 259.515 24.952V31C259.515 31.928 259.691 32.696 260.043 33.304C260.395 33.912 260.867 34.368 261.459 34.672C262.067 34.96 262.747 35.104 263.499 35.104C264.235 35.104 264.883 34.96 265.443 34.672C266.019 34.384 266.475 34 266.811 33.52C267.163 33.024 267.339 32.472 267.339 31.864H268.779C268.747 32.856 268.483 33.752 267.987 34.552C267.507 35.352 266.843 35.984 265.995 36.448C265.147 36.896 264.195 37.12 263.139 37.12ZM268.443 37C268.123 37 267.859 36.896 267.651 36.688C267.443 36.48 267.339 36.216 267.339 35.896V24.952C267.339 24.632 267.443 24.368 267.651 24.16C267.859 23.952 268.123 23.848 268.443 23.848C268.763 23.848 269.027 23.952 269.235 24.16C269.443 24.368 269.547 24.632 269.547 24.952V35.896C269.547 36.216 269.443 36.48 269.235 36.688C269.027 36.896 268.763 37 268.443 37ZM275.275 37C274.939 37 274.667 36.896 274.459 36.688C274.251 36.48 274.147 36.216 274.147 35.896V24.976C274.147 24.64 274.251 24.376 274.459 24.184C274.667 23.976 274.939 23.872 275.275 23.872C275.595 23.872 275.859 23.976 276.067 24.184C276.275 24.376 276.379 24.64 276.379 24.976V35.896C276.379 36.216 276.275 36.48 276.067 36.688C275.859 36.896 275.595 37 275.275 37ZM275.251 21.592C274.851 21.592 274.507 21.448 274.219 21.16C273.931 20.872 273.787 20.52 273.787 20.104C273.787 19.688 273.931 19.344 274.219 19.072C274.523 18.784 274.875 18.64 275.275 18.64C275.659 18.64 275.995 18.784 276.283 19.072C276.587 19.344 276.739 19.688 276.739 20.104C276.739 20.52 276.595 20.872 276.307 21.16C276.019 21.448 275.667 21.592 275.251 21.592ZM285.688 37.096C284.632 37.096 283.632 36.936 282.688 36.616C281.744 36.28 281 35.824 280.456 35.248C280.248 35.008 280.16 34.744 280.192 34.456C280.224 34.168 280.368 33.92 280.624 33.712C280.896 33.504 281.176 33.416 281.464 33.448C281.752 33.48 281.992 33.608 282.184 33.832C282.504 34.184 282.968 34.488 283.576 34.744C284.2 35 284.88 35.128 285.616 35.128C286.656 35.128 287.424 34.96 287.92 34.624C288.432 34.272 288.696 33.84 288.712 33.328C288.712 32.8 288.464 32.36 287.968 32.008C287.472 31.64 286.6 31.352 285.352 31.144C283.736 30.84 282.56 30.368 281.824 29.728C281.088 29.088 280.72 28.312 280.72 27.4C280.72 26.584 280.944 25.912 281.392 25.384C281.856 24.84 282.456 24.44 283.192 24.184C283.944 23.912 284.736 23.776 285.568 23.776C286.624 23.776 287.552 23.952 288.352 24.304C289.152 24.64 289.792 25.112 290.272 25.72C290.48 25.96 290.568 26.208 290.536 26.464C290.52 26.72 290.392 26.936 290.152 27.112C289.912 27.256 289.632 27.304 289.312 27.256C289.008 27.208 288.752 27.072 288.544 26.848C288.144 26.432 287.696 26.144 287.2 25.984C286.72 25.808 286.16 25.72 285.52 25.72C284.752 25.72 284.112 25.864 283.6 26.152C283.104 26.44 282.856 26.832 282.856 27.328C282.856 27.648 282.936 27.928 283.096 28.168C283.272 28.408 283.592 28.632 284.056 28.84C284.52 29.032 285.184 29.208 286.048 29.368C287.248 29.592 288.192 29.888 288.88 30.256C289.584 30.624 290.088 31.056 290.392 31.552C290.696 32.048 290.848 32.608 290.848 33.232C290.848 33.968 290.64 34.632 290.224 35.224C289.824 35.8 289.24 36.256 288.472 36.592C287.704 36.928 286.776 37.096 285.688 37.096ZM299.561 37.096C298.361 37.096 297.289 36.808 296.345 36.232C295.401 35.656 294.657 34.864 294.113 33.856C293.569 32.848 293.297 31.712 293.297 30.448C293.297 29.168 293.585 28.032 294.161 27.04C294.753 26.032 295.545 25.24 296.537 24.664C297.545 24.072 298.673 23.776 299.921 23.776C301.185 23.776 302.313 24.072 303.305 24.664C304.297 25.24 305.081 26.032 305.657 27.04C306.249 28.048 306.553 29.184 306.569 30.448L305.705 30.664C305.705 31.88 305.433 32.976 304.889 33.952C304.345 34.928 303.609 35.696 302.681 36.256C301.769 36.816 300.729 37.096 299.561 37.096ZM299.921 35.128C300.785 35.128 301.553 34.928 302.225 34.528C302.897 34.112 303.425 33.552 303.809 32.848C304.209 32.128 304.409 31.328 304.409 30.448C304.409 29.552 304.209 28.752 303.809 28.048C303.425 27.328 302.897 26.768 302.225 26.368C301.553 25.952 300.785 25.744 299.921 25.744C299.089 25.744 298.329 25.952 297.641 26.368C296.953 26.768 296.409 27.328 296.009 28.048C295.625 28.752 295.433 29.552 295.433 30.448C295.433 31.328 295.625 32.128 296.009 32.848C296.409 33.552 296.953 34.112 297.641 34.528C298.329 34.928 299.089 35.128 299.921 35.128ZM305.441 37.024C305.121 37.024 304.857 36.92 304.649 36.712C304.441 36.504 304.337 36.24 304.337 35.92V32.08L304.793 29.776L306.569 30.448V35.92C306.569 36.24 306.457 36.504 306.233 36.712C306.025 36.92 305.761 37.024 305.441 37.024Z" fill="white"/>
</svg>
