<svg width="379" height="521" viewBox="0 0 379 521" fill="none" xmlns="http://www.w3.org/2000/svg">
<g filter="url(#filter0_d_150_31)">
<rect x="21" y="21" width="336.58" height="478.48" rx="20" fill="white"/>
</g>
<path d="M129.361 91.3853C127.417 91.3853 125.593 91.0133 123.889 90.2693C122.209 89.5253 120.721 88.4933 119.425 87.1733C118.153 85.8533 117.157 84.3293 116.437 82.6013C115.741 80.8493 115.393 78.9653 115.393 76.9493C115.393 74.9573 115.741 73.0973 116.437 71.3693C117.157 69.6173 118.153 68.0933 119.425 66.7973C120.697 65.4773 122.173 64.4453 123.853 63.7013C125.557 62.9333 127.393 62.5493 129.361 62.5493C131.113 62.5493 132.685 62.8013 134.077 63.3053C135.469 63.7853 136.825 64.5773 138.145 65.6813C138.361 65.8493 138.493 66.0413 138.541 66.2573C138.613 66.4493 138.613 66.6413 138.541 66.8333C138.493 67.0253 138.409 67.1933 138.289 67.3373C138.241 67.6013 138.097 67.8173 137.857 67.9853C137.641 68.1293 137.365 68.2013 137.029 68.2013C136.717 68.2013 136.417 68.0813 136.129 67.8413C135.217 67.0253 134.233 66.4253 133.177 66.0413C132.121 65.6333 130.849 65.4293 129.361 65.4293C127.849 65.4293 126.421 65.7413 125.077 66.3653C123.757 66.9653 122.593 67.7933 121.585 68.8493C120.577 69.9053 119.785 71.1293 119.209 72.5213C118.657 73.9133 118.381 75.3893 118.381 76.9493C118.381 78.5573 118.657 80.0573 119.209 81.4493C119.785 82.8413 120.577 84.0653 121.585 85.1213C122.593 86.1773 123.757 87.0053 125.077 87.6053C126.421 88.2053 127.849 88.5053 129.361 88.5053C130.633 88.5053 131.845 88.2893 132.997 87.8573C134.149 87.4253 135.253 86.8133 136.309 86.0213C136.645 85.7573 136.981 85.6493 137.317 85.6973C137.677 85.7453 137.977 85.9013 138.217 86.1653C138.481 86.4053 138.613 86.7413 138.613 87.1733C138.613 87.3893 138.577 87.5813 138.505 87.7493C138.457 87.9173 138.349 88.0973 138.181 88.2893C136.933 89.3933 135.553 90.1853 134.041 90.6653C132.553 91.1453 130.993 91.3853 129.361 91.3853ZM138.613 87.1733L135.625 86.5613V79.5413H130.189C129.757 79.5413 129.385 79.4213 129.073 79.1813C128.785 78.9173 128.641 78.5813 128.641 78.1733C128.641 77.7893 128.785 77.4653 129.073 77.2013C129.385 76.9373 129.757 76.8053 130.189 76.8053H137.101C137.533 76.8053 137.893 76.9493 138.181 77.2373C138.469 77.5253 138.613 77.8973 138.613 78.3533V87.1733ZM144.931 78.8213C144.979 77.3573 145.351 76.0493 146.047 74.8973C146.767 73.7213 147.703 72.7973 148.855 72.1253C150.031 71.4533 151.315 71.1173 152.707 71.1173C153.931 71.1173 154.855 71.2973 155.479 71.6573C156.127 72.0173 156.367 72.5093 156.199 73.1333C156.127 73.4693 155.971 73.7093 155.731 73.8533C155.515 73.9973 155.251 74.0693 154.939 74.0693C154.651 74.0693 154.315 74.0453 153.931 73.9973C152.515 73.8293 151.255 73.9253 150.151 74.2853C149.071 74.6213 148.207 75.1853 147.559 75.9773C146.911 76.7693 146.587 77.7173 146.587 78.8213H144.931ZM145.111 91.0253C144.631 91.0253 144.259 90.8933 143.995 90.6293C143.731 90.3653 143.599 89.9933 143.599 89.5133V72.8453C143.599 72.3653 143.731 71.9933 143.995 71.7293C144.259 71.4653 144.631 71.3333 145.111 71.3333C145.591 71.3333 145.951 71.4653 146.191 71.7293C146.455 71.9933 146.587 72.3653 146.587 72.8453V89.5133C146.587 89.9933 146.455 90.3653 146.191 90.6293C145.951 90.8933 145.591 91.0253 145.111 91.0253ZM166.954 91.2053C165.13 91.2053 163.498 90.7733 162.058 89.9093C160.618 89.0213 159.478 87.8213 158.638 86.3093C157.798 84.7973 157.378 83.0933 157.378 81.1973C157.378 79.2773 157.81 77.5613 158.674 76.0493C159.562 74.5373 160.762 73.3493 162.274 72.4853C163.786 71.5973 165.49 71.1533 167.386 71.1533C169.258 71.1533 170.938 71.5973 172.426 72.4853C173.938 73.3493 175.126 74.5373 175.99 76.0493C176.878 77.5613 177.334 79.2773 177.358 81.1973L176.134 81.8093C176.134 83.5853 175.726 85.1813 174.91 86.5973C174.118 88.0133 173.026 89.1413 171.634 89.9813C170.266 90.7973 168.706 91.2053 166.954 91.2053ZM167.386 88.4693C168.73 88.4693 169.918 88.1573 170.95 87.5333C172.006 86.8853 172.834 86.0093 173.434 84.9053C174.058 83.8013 174.37 82.5653 174.37 81.1973C174.37 79.8053 174.058 78.5693 173.434 77.4893C172.834 76.3853 172.006 75.5093 170.95 74.8613C169.918 74.2133 168.73 73.8893 167.386 73.8893C166.066 73.8893 164.866 74.2133 163.786 74.8613C162.73 75.5093 161.89 76.3853 161.266 77.4893C160.642 78.5693 160.33 79.8053 160.33 81.1973C160.33 82.5653 160.642 83.8013 161.266 84.9053C161.89 86.0093 162.73 86.8853 163.786 87.5333C164.866 88.1573 166.066 88.4693 167.386 88.4693ZM175.81 91.0253C175.378 91.0253 175.006 90.8933 174.694 90.6293C174.406 90.3413 174.262 89.9693 174.262 89.5133V83.5733L174.946 80.4413L177.358 81.1973V89.5133C177.358 89.9693 177.214 90.3413 176.926 90.6293C176.638 90.8933 176.266 91.0253 175.81 91.0253ZM189.734 91.0253C188.486 91.0253 187.37 90.7253 186.386 90.1253C185.402 89.5253 184.622 88.6973 184.046 87.6413C183.494 86.5853 183.218 85.3973 183.218 84.0773V66.5813C183.218 66.1493 183.35 65.7893 183.614 65.5013C183.902 65.2133 184.274 65.0693 184.73 65.0693C185.162 65.0693 185.522 65.2133 185.81 65.5013C186.098 65.7893 186.242 66.1493 186.242 66.5813V84.0773C186.242 85.2053 186.566 86.1413 187.214 86.8853C187.886 87.6293 188.726 88.0013 189.734 88.0013H190.814C191.198 88.0013 191.522 88.1453 191.786 88.4333C192.05 88.7213 192.182 89.0813 192.182 89.5133C192.182 89.9693 192.014 90.3413 191.678 90.6293C191.366 90.8933 190.958 91.0253 190.454 91.0253H189.734ZM181.094 74.6813C180.686 74.6813 180.35 74.5613 180.086 74.3213C179.822 74.0573 179.69 73.7453 179.69 73.3853C179.69 73.0013 179.822 72.6893 180.086 72.4493C180.35 72.1853 180.686 72.0533 181.094 72.0533H189.986C190.394 72.0533 190.73 72.1853 190.994 72.4493C191.258 72.6893 191.39 73.0013 191.39 73.3853C191.39 73.7453 191.258 74.0573 190.994 74.3213C190.73 74.5613 190.394 74.6813 189.986 74.6813H181.094ZM204.651 91.2413C202.947 91.2413 201.423 90.8933 200.079 90.1973C198.759 89.4773 197.715 88.4333 196.947 87.0653C196.179 85.6973 195.795 84.0173 195.795 82.0253V72.8453C195.795 72.4133 195.939 72.0533 196.227 71.7653C196.515 71.4773 196.875 71.3333 197.307 71.3333C197.739 71.3333 198.099 71.4773 198.387 71.7653C198.675 72.0533 198.819 72.4133 198.819 72.8453V82.0253C198.819 83.4893 199.095 84.6893 199.647 85.6253C200.199 86.5373 200.943 87.2333 201.879 87.7133C202.815 88.1693 203.871 88.3973 205.047 88.3973C206.175 88.3973 207.195 88.1813 208.107 87.7493C209.019 87.2933 209.739 86.6933 210.267 85.9493C210.795 85.1813 211.059 84.3053 211.059 83.3213H213.111C213.063 84.8333 212.667 86.1893 211.923 87.3893C211.179 88.5653 210.171 89.5013 208.899 90.1973C207.627 90.8933 206.211 91.2413 204.651 91.2413ZM212.571 91.0253C212.115 91.0253 211.743 90.8933 211.455 90.6293C211.191 90.3413 211.059 89.9573 211.059 89.4773V72.8453C211.059 72.3893 211.191 72.0293 211.455 71.7653C211.743 71.4773 212.115 71.3333 212.571 71.3333C213.027 71.3333 213.399 71.4773 213.687 71.7653C213.975 72.0293 214.119 72.3893 214.119 72.8453V89.4773C214.119 89.9573 213.975 90.3413 213.687 90.6293C213.399 90.8933 213.027 91.0253 212.571 91.0253ZM222.1 91.0253C221.644 91.0253 221.272 90.8933 220.984 90.6293C220.696 90.3413 220.552 89.9573 220.552 89.4773V72.8813C220.552 72.4013 220.696 72.0293 220.984 71.7653C221.272 71.4773 221.644 71.3333 222.1 71.3333C222.556 71.3333 222.916 71.4773 223.18 71.7653C223.468 72.0293 223.612 72.4013 223.612 72.8813V89.4773C223.612 89.9573 223.468 90.3413 223.18 90.6293C222.916 90.8933 222.556 91.0253 222.1 91.0253ZM222.064 67.7693C221.488 67.7693 220.996 67.5653 220.588 67.1573C220.18 66.7253 219.976 66.2213 219.976 65.6453C219.976 65.0453 220.18 64.5533 220.588 64.1693C221.02 63.7853 221.512 63.5933 222.064 63.5933C222.616 63.5933 223.096 63.7853 223.504 64.1693C223.936 64.5533 224.152 65.0453 224.152 65.6453C224.152 66.2213 223.948 66.7253 223.54 67.1573C223.132 67.5653 222.64 67.7693 222.064 67.7693ZM237.579 91.0253C236.331 91.0253 235.215 90.7253 234.231 90.1253C233.247 89.5253 232.467 88.6973 231.891 87.6413C231.339 86.5853 231.063 85.3973 231.063 84.0773V66.5813C231.063 66.1493 231.195 65.7893 231.459 65.5013C231.747 65.2133 232.119 65.0693 232.575 65.0693C233.007 65.0693 233.367 65.2133 233.655 65.5013C233.943 65.7893 234.087 66.1493 234.087 66.5813V84.0773C234.087 85.2053 234.411 86.1413 235.059 86.8853C235.731 87.6293 236.571 88.0013 237.579 88.0013H238.659C239.043 88.0013 239.367 88.1453 239.631 88.4333C239.895 88.7213 240.027 89.0813 240.027 89.5133C240.027 89.9693 239.859 90.3413 239.523 90.6293C239.211 90.8933 238.803 91.0253 238.299 91.0253H237.579ZM228.939 74.6813C228.531 74.6813 228.195 74.5613 227.931 74.3213C227.667 74.0573 227.535 73.7453 227.535 73.3853C227.535 73.0013 227.667 72.6893 227.931 72.4493C228.195 72.1853 228.531 72.0533 228.939 72.0533H237.831C238.239 72.0533 238.575 72.1853 238.839 72.4493C239.103 72.6893 239.235 73.0013 239.235 73.3853C239.235 73.7453 239.103 74.0573 238.839 74.3213C238.575 74.5613 238.239 74.6813 237.831 74.6813H228.939ZM252.963 91.2053C251.019 91.2053 249.291 90.7733 247.779 89.9093C246.291 89.0453 245.115 87.8573 244.251 86.3453C243.387 84.8333 242.955 83.1173 242.955 81.1973C242.955 79.2533 243.387 77.5253 244.251 76.0133C245.115 74.5013 246.291 73.3133 247.779 72.4493C249.291 71.5853 251.019 71.1533 252.963 71.1533C254.883 71.1533 256.587 71.5853 258.075 72.4493C259.563 73.3133 260.739 74.5013 261.603 76.0133C262.467 77.5253 262.911 79.2533 262.935 81.1973C262.935 83.1173 262.503 84.8333 261.639 86.3453C260.775 87.8573 259.587 89.0453 258.075 89.9093C256.587 90.7733 254.883 91.2053 252.963 91.2053ZM252.963 88.4693C254.307 88.4693 255.507 88.1573 256.563 87.5333C257.619 86.8853 258.447 86.0213 259.047 84.9413C259.647 83.8373 259.947 82.5893 259.947 81.1973C259.947 79.8053 259.647 78.5573 259.047 77.4533C258.447 76.3493 257.619 75.4853 256.563 74.8613C255.507 74.2133 254.307 73.8893 252.963 73.8893C251.619 73.8893 250.407 74.2133 249.327 74.8613C248.271 75.4853 247.431 76.3493 246.807 77.4533C246.207 78.5573 245.907 79.8053 245.907 81.1973C245.907 82.5893 246.207 83.8373 246.807 84.9413C247.431 86.0213 248.271 86.8853 249.327 87.5333C250.407 88.1573 251.619 88.4693 252.963 88.4693Z" fill="#423944"/>
<path d="M73.7321 150.072C73.4575 150.072 73.2605 149.959 73.1411 149.732C73.0217 149.505 73.0098 149.284 73.1053 149.069L78.3706 136.569C78.5019 136.246 78.7288 136.085 79.0512 136.085C79.3616 136.085 79.5825 136.246 79.7138 136.569L84.997 149.087C85.1045 149.314 85.0866 149.535 84.9433 149.75C84.812 149.965 84.6209 150.072 84.3702 150.072C84.2269 150.072 84.0956 150.036 83.9762 149.965C83.8687 149.893 83.7792 149.786 83.7076 149.642L78.7825 137.697H79.3377L74.3768 149.642C74.3171 149.786 74.2276 149.893 74.1082 149.965C74.0007 150.036 73.8754 150.072 73.7321 150.072ZM74.9141 146.741L75.4514 145.541H82.7225L83.2598 146.741H74.9141ZM90.667 150.162C89.7238 150.162 88.882 149.947 88.1418 149.517C87.4135 149.075 86.8344 148.478 86.4046 147.726C85.9867 146.974 85.7778 146.126 85.7778 145.183C85.7778 144.228 85.9807 143.374 86.3867 142.622C86.7926 141.87 87.3478 141.279 88.0522 140.849C88.7567 140.407 89.5685 140.186 90.4879 140.186C91.2162 140.186 91.8848 140.33 92.4937 140.616C93.1146 140.903 93.6578 141.332 94.1235 141.906C94.2548 142.049 94.3026 142.204 94.2667 142.371C94.2309 142.526 94.1294 142.664 93.9623 142.783C93.8309 142.879 93.6817 142.914 93.5146 142.891C93.3593 142.855 93.222 142.765 93.1026 142.622C92.4101 141.834 91.5386 141.44 90.4879 141.44C89.8193 141.44 89.2283 141.601 88.7149 141.923C88.2134 142.246 87.8194 142.688 87.5329 143.249C87.2583 143.81 87.1209 144.455 87.1209 145.183C87.1209 145.899 87.2702 146.538 87.5687 147.099C87.8672 147.66 88.2851 148.102 88.8223 148.424C89.3596 148.747 89.9745 148.908 90.667 148.908C91.1326 148.908 91.5565 148.848 91.9385 148.729C92.3325 148.598 92.6788 148.401 92.9773 148.138C93.1205 148.019 93.2698 147.953 93.425 147.941C93.5802 147.929 93.7235 147.977 93.8548 148.084C93.9981 148.216 94.0757 148.365 94.0876 148.532C94.1115 148.699 94.0578 148.842 93.9265 148.962C93.0549 149.762 91.9684 150.162 90.667 150.162ZM101.121 150.162C100.154 150.162 99.2943 149.953 98.5422 149.535C97.8019 149.105 97.2169 148.514 96.787 147.762C96.3692 147.01 96.1602 146.15 96.1602 145.183C96.1602 144.204 96.3572 143.344 96.7512 142.604C97.1572 141.852 97.7124 141.261 98.4168 140.831C99.1212 140.401 99.9331 140.186 100.852 140.186C101.76 140.186 102.548 140.395 103.216 140.813C103.897 141.219 104.422 141.786 104.792 142.514C105.163 143.243 105.348 144.073 105.348 145.004C105.348 145.195 105.288 145.35 105.169 145.469C105.049 145.577 104.894 145.631 104.703 145.631H97.0915V144.484H104.846L104.076 145.04C104.088 144.347 103.963 143.726 103.7 143.177C103.437 142.628 103.061 142.198 102.572 141.888C102.094 141.577 101.521 141.422 100.852 141.422C100.172 141.422 99.5749 141.583 99.0615 141.906C98.5481 142.228 98.1482 142.676 97.8616 143.249C97.587 143.81 97.4497 144.455 97.4497 145.183C97.4497 145.911 97.6049 146.556 97.9153 147.117C98.2377 147.678 98.6735 148.12 99.2227 148.442C99.7719 148.765 100.405 148.926 101.121 148.926C101.551 148.926 101.981 148.854 102.411 148.711C102.852 148.556 103.205 148.365 103.467 148.138C103.599 148.03 103.748 147.977 103.915 147.977C104.082 147.965 104.225 148.007 104.345 148.102C104.5 148.245 104.578 148.401 104.578 148.568C104.59 148.735 104.524 148.878 104.381 148.998C103.987 149.332 103.485 149.612 102.876 149.839C102.267 150.054 101.682 150.162 101.121 150.162ZM110.833 150.162C110.128 150.162 109.43 150.042 108.737 149.804C108.045 149.565 107.483 149.207 107.054 148.729C106.922 148.586 106.869 148.424 106.892 148.245C106.916 148.066 107.006 147.911 107.161 147.78C107.328 147.66 107.501 147.613 107.68 147.636C107.86 147.66 108.009 147.738 108.128 147.869C108.415 148.204 108.791 148.46 109.257 148.639C109.734 148.818 110.259 148.908 110.833 148.908C111.716 148.908 112.355 148.759 112.749 148.46C113.143 148.15 113.346 147.78 113.358 147.35C113.358 146.92 113.155 146.568 112.749 146.293C112.343 146.007 111.674 145.786 110.743 145.631C109.537 145.44 108.654 145.105 108.092 144.628C107.531 144.15 107.251 143.583 107.251 142.926C107.251 142.317 107.412 141.81 107.734 141.404C108.057 140.998 108.486 140.694 109.024 140.491C109.561 140.288 110.152 140.186 110.797 140.186C111.597 140.186 112.283 140.324 112.856 140.598C113.441 140.873 113.913 141.243 114.271 141.709C114.39 141.864 114.438 142.025 114.414 142.192C114.39 142.359 114.295 142.497 114.128 142.604C113.985 142.688 113.817 142.717 113.626 142.694C113.447 142.658 113.292 142.568 113.161 142.425C112.862 142.079 112.516 141.828 112.122 141.673C111.728 141.506 111.274 141.422 110.761 141.422C110.104 141.422 109.579 141.559 109.185 141.834C108.791 142.097 108.594 142.431 108.594 142.837C108.594 143.111 108.665 143.35 108.809 143.553C108.964 143.756 109.221 143.935 109.579 144.09C109.949 144.246 110.462 144.377 111.119 144.484C112.015 144.628 112.719 144.843 113.232 145.129C113.758 145.404 114.128 145.732 114.343 146.114C114.57 146.484 114.683 146.89 114.683 147.332C114.683 147.893 114.516 148.389 114.182 148.818C113.859 149.236 113.405 149.565 112.82 149.804C112.247 150.042 111.585 150.162 110.833 150.162ZM120.218 150.162C119.514 150.162 118.815 150.042 118.123 149.804C117.43 149.565 116.869 149.207 116.439 148.729C116.308 148.586 116.254 148.424 116.278 148.245C116.302 148.066 116.391 147.911 116.547 147.78C116.714 147.66 116.887 147.613 117.066 147.636C117.245 147.66 117.394 147.738 117.514 147.869C117.8 148.204 118.176 148.46 118.642 148.639C119.12 148.818 119.645 148.908 120.218 148.908C121.102 148.908 121.74 148.759 122.134 148.46C122.528 148.15 122.731 147.78 122.743 147.35C122.743 146.92 122.54 146.568 122.134 146.293C121.728 146.007 121.06 145.786 120.129 145.631C118.923 145.44 118.039 145.105 117.478 144.628C116.917 144.15 116.636 143.583 116.636 142.926C116.636 142.317 116.797 141.81 117.12 141.404C117.442 140.998 117.872 140.694 118.409 140.491C118.947 140.288 119.538 140.186 120.182 140.186C120.982 140.186 121.669 140.324 122.242 140.598C122.827 140.873 123.298 141.243 123.657 141.709C123.776 141.864 123.824 142.025 123.8 142.192C123.776 142.359 123.681 142.497 123.513 142.604C123.37 142.688 123.203 142.717 123.012 142.694C122.833 142.658 122.678 142.568 122.546 142.425C122.248 142.079 121.902 141.828 121.508 141.673C121.114 141.506 120.66 141.422 120.146 141.422C119.49 141.422 118.964 141.559 118.57 141.834C118.176 142.097 117.979 142.431 117.979 142.837C117.979 143.111 118.051 143.35 118.194 143.553C118.35 143.756 118.606 143.935 118.964 144.09C119.335 144.246 119.848 144.377 120.505 144.484C121.4 144.628 122.105 144.843 122.618 145.129C123.143 145.404 123.513 145.732 123.728 146.114C123.955 146.484 124.069 146.89 124.069 147.332C124.069 147.893 123.901 148.389 123.567 148.818C123.245 149.236 122.791 149.565 122.206 149.804C121.633 150.042 120.97 150.162 120.218 150.162ZM130.642 150.162C129.687 150.162 128.834 149.947 128.081 149.517C127.329 149.087 126.738 148.496 126.308 147.744C125.879 146.992 125.664 146.138 125.664 145.183C125.664 144.216 125.879 143.356 126.308 142.604C126.738 141.852 127.329 141.261 128.081 140.831C128.834 140.401 129.687 140.186 130.642 140.186C131.598 140.186 132.445 140.401 133.186 140.831C133.938 141.261 134.529 141.852 134.959 142.604C135.388 143.356 135.609 144.216 135.621 145.183C135.621 146.138 135.4 146.992 134.959 147.744C134.529 148.496 133.938 149.087 133.186 149.517C132.445 149.947 131.598 150.162 130.642 150.162ZM130.642 148.908C131.335 148.908 131.956 148.747 132.505 148.424C133.054 148.102 133.484 147.66 133.794 147.099C134.105 146.538 134.26 145.899 134.26 145.183C134.26 144.467 134.105 143.828 133.794 143.267C133.484 142.694 133.054 142.246 132.505 141.923C131.956 141.601 131.335 141.44 130.642 141.44C129.95 141.44 129.329 141.601 128.78 141.923C128.231 142.246 127.795 142.694 127.472 143.267C127.162 143.828 127.007 144.467 127.007 145.183C127.007 145.899 127.162 146.538 127.472 147.099C127.795 147.66 128.231 148.102 128.78 148.424C129.329 148.747 129.95 148.908 130.642 148.908ZM147.329 150.162C146.41 150.162 145.586 149.947 144.857 149.517C144.129 149.075 143.55 148.478 143.12 147.726C142.702 146.974 142.493 146.126 142.493 145.183C142.493 144.228 142.708 143.374 143.138 142.622C143.58 141.87 144.177 141.279 144.929 140.849C145.681 140.407 146.529 140.186 147.472 140.186C148.415 140.186 149.257 140.407 149.997 140.849C150.75 141.279 151.341 141.87 151.77 142.622C152.212 143.374 152.439 144.228 152.451 145.183L151.896 145.613C151.896 146.472 151.693 147.248 151.287 147.941C150.893 148.621 150.35 149.165 149.657 149.571C148.977 149.965 148.2 150.162 147.329 150.162ZM147.472 148.908C148.165 148.908 148.78 148.747 149.317 148.424C149.866 148.102 150.296 147.66 150.606 147.099C150.929 146.526 151.09 145.887 151.09 145.183C151.09 144.467 150.929 143.828 150.606 143.267C150.296 142.705 149.866 142.264 149.317 141.941C148.78 141.607 148.165 141.44 147.472 141.44C146.792 141.44 146.177 141.607 145.628 141.941C145.078 142.264 144.643 142.705 144.32 143.267C143.998 143.828 143.837 144.467 143.837 145.183C143.837 145.887 143.998 146.526 144.32 147.099C144.643 147.66 145.078 148.102 145.628 148.424C146.177 148.747 146.792 148.908 147.472 148.908ZM151.752 150.072C151.55 150.072 151.382 150.012 151.251 149.893C151.12 149.762 151.054 149.595 151.054 149.392V146.329L151.394 144.914L152.451 145.183V149.392C152.451 149.595 152.385 149.762 152.254 149.893C152.123 150.012 151.955 150.072 151.752 150.072ZM173.078 150.072C172.875 150.072 172.707 150.012 172.576 149.893C172.445 149.762 172.379 149.595 172.379 149.392V144.234C172.379 143.386 172.158 142.717 171.716 142.228C171.275 141.726 170.708 141.476 170.015 141.476C169.275 141.476 168.666 141.726 168.188 142.228C167.723 142.717 167.496 143.374 167.508 144.198H166.272C166.284 143.398 166.457 142.694 166.791 142.085C167.126 141.476 167.585 141.004 168.17 140.67C168.755 140.335 169.418 140.168 170.158 140.168C170.863 140.168 171.484 140.335 172.021 140.67C172.57 141.004 172.994 141.476 173.292 142.085C173.603 142.694 173.758 143.41 173.758 144.234V149.392C173.758 149.595 173.692 149.762 173.561 149.893C173.442 150.012 173.28 150.072 173.078 150.072ZM160.541 150.072C160.326 150.072 160.153 150.012 160.022 149.893C159.902 149.762 159.843 149.595 159.843 149.392V140.974C159.843 140.771 159.902 140.604 160.022 140.473C160.153 140.341 160.326 140.276 160.541 140.276C160.744 140.276 160.905 140.341 161.025 140.473C161.156 140.604 161.222 140.771 161.222 140.974V149.392C161.222 149.595 161.156 149.762 161.025 149.893C160.905 150.012 160.744 150.072 160.541 150.072ZM166.827 150.072C166.624 150.072 166.457 150.012 166.326 149.893C166.194 149.762 166.129 149.595 166.129 149.392V144.234C166.129 143.386 165.908 142.717 165.466 142.228C165.024 141.726 164.457 141.476 163.765 141.476C163.024 141.476 162.416 141.72 161.938 142.21C161.46 142.688 161.222 143.314 161.222 144.09H160.237C160.26 143.326 160.428 142.652 160.738 142.067C161.06 141.47 161.496 141.004 162.045 140.67C162.595 140.335 163.215 140.168 163.908 140.168C164.612 140.168 165.233 140.335 165.771 140.67C166.32 141.004 166.744 141.476 167.042 142.085C167.353 142.694 167.508 143.41 167.508 144.234V149.392C167.508 149.595 167.442 149.762 167.311 149.893C167.191 150.012 167.03 150.072 166.827 150.072ZM177.524 150.072C177.309 150.072 177.136 150.012 177.004 149.893C176.885 149.762 176.825 149.589 176.825 149.374V140.974C176.825 140.759 176.885 140.592 177.004 140.473C177.136 140.341 177.309 140.276 177.524 140.276C177.727 140.276 177.888 140.341 178.007 140.473C178.139 140.592 178.204 140.759 178.204 140.974V149.374C178.204 149.589 178.139 149.762 178.007 149.893C177.888 150.012 177.727 150.072 177.524 150.072ZM177.506 138.413C177.243 138.413 177.016 138.318 176.825 138.127C176.634 137.936 176.539 137.703 176.539 137.428C176.539 137.13 176.634 136.897 176.825 136.73C177.028 136.551 177.261 136.461 177.524 136.461C177.775 136.461 177.995 136.551 178.186 136.73C178.389 136.897 178.491 137.13 178.491 137.428C178.491 137.703 178.395 137.936 178.204 138.127C178.013 138.318 177.78 138.413 177.506 138.413ZM189.846 150.072C189.643 150.072 189.476 150.006 189.345 149.875C189.214 149.744 189.148 149.583 189.148 149.392V144.735C189.148 143.995 189.005 143.386 188.718 142.908C188.444 142.431 188.062 142.073 187.572 141.834C187.094 141.595 186.551 141.476 185.942 141.476C185.357 141.476 184.826 141.589 184.348 141.816C183.883 142.043 183.513 142.353 183.238 142.747C182.963 143.141 182.826 143.589 182.826 144.09H181.841C181.865 143.338 182.068 142.67 182.45 142.085C182.832 141.488 183.339 141.022 183.972 140.688C184.605 140.341 185.309 140.168 186.086 140.168C186.933 140.168 187.691 140.347 188.36 140.706C189.029 141.052 189.554 141.565 189.936 142.246C190.33 142.926 190.527 143.756 190.527 144.735V149.392C190.527 149.583 190.461 149.744 190.33 149.875C190.199 150.006 190.037 150.072 189.846 150.072ZM182.145 150.072C181.931 150.072 181.757 150.012 181.626 149.893C181.507 149.762 181.447 149.595 181.447 149.392V140.974C181.447 140.759 181.507 140.592 181.626 140.473C181.757 140.341 181.931 140.276 182.145 140.276C182.348 140.276 182.51 140.341 182.629 140.473C182.76 140.592 182.826 140.759 182.826 140.974V149.392C182.826 149.595 182.76 149.762 182.629 149.893C182.51 150.012 182.348 150.072 182.145 150.072ZM194.284 150.072C194.069 150.072 193.896 150.012 193.764 149.893C193.645 149.762 193.585 149.589 193.585 149.374V140.974C193.585 140.759 193.645 140.592 193.764 140.473C193.896 140.341 194.069 140.276 194.284 140.276C194.487 140.276 194.648 140.341 194.767 140.473C194.899 140.592 194.964 140.759 194.964 140.974V149.374C194.964 149.589 194.899 149.762 194.767 149.893C194.648 150.012 194.487 150.072 194.284 150.072ZM194.266 138.413C194.003 138.413 193.776 138.318 193.585 138.127C193.394 137.936 193.299 137.703 193.299 137.428C193.299 137.13 193.394 136.897 193.585 136.73C193.788 136.551 194.021 136.461 194.284 136.461C194.534 136.461 194.755 136.551 194.946 136.73C195.149 136.897 195.251 137.13 195.251 137.428C195.251 137.703 195.155 137.936 194.964 138.127C194.773 138.318 194.54 138.413 194.266 138.413ZM207.555 150.162C206.612 150.162 205.77 149.947 205.03 149.517C204.301 149.075 203.722 148.478 203.293 147.726C202.875 146.974 202.666 146.126 202.666 145.183C202.666 144.228 202.869 143.374 203.275 142.622C203.681 141.87 204.236 141.279 204.94 140.849C205.645 140.407 206.457 140.186 207.376 140.186C208.104 140.186 208.773 140.33 209.382 140.616C210.003 140.903 210.546 141.332 211.011 141.906C211.143 142.049 211.191 142.204 211.155 142.371C211.119 142.526 211.017 142.664 210.85 142.783C210.719 142.879 210.57 142.914 210.403 142.891C210.247 142.855 210.11 142.765 209.991 142.622C209.298 141.834 208.427 141.44 207.376 141.44C206.707 141.44 206.116 141.601 205.603 141.923C205.101 142.246 204.707 142.688 204.421 143.249C204.146 143.81 204.009 144.455 204.009 145.183C204.009 145.899 204.158 146.538 204.457 147.099C204.755 147.66 205.173 148.102 205.71 148.424C206.248 148.747 206.862 148.908 207.555 148.908C208.021 148.908 208.444 148.848 208.826 148.729C209.22 148.598 209.567 148.401 209.865 148.138C210.009 148.019 210.158 147.953 210.313 147.941C210.468 147.929 210.611 147.977 210.743 148.084C210.886 148.216 210.964 148.365 210.976 148.532C210.999 148.699 210.946 148.842 210.814 148.962C209.943 149.762 208.856 150.162 207.555 150.162ZM217.83 150.18C216.982 150.18 216.224 150.006 215.555 149.66C214.887 149.302 214.356 148.783 213.962 148.102C213.579 147.422 213.388 146.592 213.388 145.613V140.956C213.388 140.765 213.454 140.604 213.585 140.473C213.717 140.341 213.878 140.276 214.069 140.276C214.272 140.276 214.439 140.341 214.57 140.473C214.702 140.604 214.767 140.765 214.767 140.956V145.613C214.767 146.353 214.905 146.962 215.179 147.439C215.466 147.917 215.848 148.275 216.326 148.514C216.815 148.753 217.364 148.872 217.973 148.872C218.558 148.872 219.084 148.759 219.549 148.532C220.027 148.305 220.403 147.995 220.678 147.601C220.952 147.207 221.089 146.759 221.089 146.257H222.074C222.039 147.01 221.83 147.684 221.448 148.281C221.077 148.866 220.576 149.332 219.943 149.678C219.31 150.012 218.606 150.18 217.83 150.18ZM221.77 150.072C221.567 150.072 221.4 150.012 221.269 149.893C221.149 149.762 221.089 149.589 221.089 149.374V140.956C221.089 140.753 221.149 140.592 221.269 140.473C221.4 140.341 221.567 140.276 221.77 140.276C221.973 140.276 222.14 140.341 222.271 140.473C222.403 140.592 222.468 140.753 222.468 140.956V149.374C222.468 149.589 222.403 149.762 222.271 149.893C222.14 150.012 221.973 150.072 221.77 150.072ZM225.992 144.037C226.028 143.296 226.219 142.634 226.565 142.049C226.924 141.464 227.383 141.004 227.944 140.67C228.517 140.335 229.15 140.168 229.843 140.168C230.392 140.168 230.816 140.246 231.114 140.401C231.413 140.556 231.526 140.783 231.455 141.082C231.407 141.261 231.323 141.38 231.204 141.44C231.096 141.5 230.959 141.523 230.792 141.512C230.637 141.5 230.458 141.488 230.255 141.476C229.586 141.416 228.989 141.488 228.464 141.691C227.95 141.882 227.538 142.18 227.228 142.586C226.929 142.992 226.78 143.476 226.78 144.037H225.992ZM226.1 150.072C225.885 150.072 225.718 150.012 225.598 149.893C225.479 149.774 225.419 149.607 225.419 149.392V140.956C225.419 140.741 225.479 140.574 225.598 140.455C225.718 140.335 225.885 140.276 226.1 140.276C226.315 140.276 226.482 140.335 226.601 140.455C226.721 140.574 226.78 140.741 226.78 140.956V149.392C226.78 149.607 226.721 149.774 226.601 149.893C226.482 150.012 226.315 150.072 226.1 150.072ZM236.774 150.162C236.069 150.162 235.371 150.042 234.678 149.804C233.986 149.565 233.425 149.207 232.995 148.729C232.864 148.586 232.81 148.424 232.834 148.245C232.858 148.066 232.947 147.911 233.102 147.78C233.27 147.66 233.443 147.613 233.622 147.636C233.801 147.66 233.95 147.738 234.069 147.869C234.356 148.204 234.732 148.46 235.198 148.639C235.675 148.818 236.201 148.908 236.774 148.908C237.657 148.908 238.296 148.759 238.69 148.46C239.084 148.15 239.287 147.78 239.299 147.35C239.299 146.92 239.096 146.568 238.69 146.293C238.284 146.007 237.615 145.786 236.684 145.631C235.478 145.44 234.595 145.105 234.034 144.628C233.472 144.15 233.192 143.583 233.192 142.926C233.192 142.317 233.353 141.81 233.675 141.404C233.998 140.998 234.428 140.694 234.965 140.491C235.502 140.288 236.093 140.186 236.738 140.186C237.538 140.186 238.224 140.324 238.797 140.598C239.383 140.873 239.854 141.243 240.212 141.709C240.332 141.864 240.379 142.025 240.356 142.192C240.332 142.359 240.236 142.497 240.069 142.604C239.926 142.688 239.759 142.717 239.568 142.694C239.388 142.658 239.233 142.568 239.102 142.425C238.803 142.079 238.457 141.828 238.063 141.673C237.669 141.506 237.216 141.422 236.702 141.422C236.045 141.422 235.52 141.559 235.126 141.834C234.732 142.097 234.535 142.431 234.535 142.837C234.535 143.111 234.607 143.35 234.75 143.553C234.905 143.756 235.162 143.935 235.52 144.09C235.89 144.246 236.404 144.377 237.06 144.484C237.956 144.628 238.66 144.843 239.174 145.129C239.699 145.404 240.069 145.732 240.284 146.114C240.511 146.484 240.624 146.89 240.624 147.332C240.624 147.893 240.457 148.389 240.123 148.818C239.8 149.236 239.347 149.565 238.762 149.804C238.189 150.042 237.526 150.162 236.774 150.162ZM247.198 150.162C246.243 150.162 245.389 149.947 244.637 149.517C243.885 149.087 243.294 148.496 242.864 147.744C242.434 146.992 242.219 146.138 242.219 145.183C242.219 144.216 242.434 143.356 242.864 142.604C243.294 141.852 243.885 141.261 244.637 140.831C245.389 140.401 246.243 140.186 247.198 140.186C248.153 140.186 249.001 140.401 249.741 140.831C250.493 141.261 251.084 141.852 251.514 142.604C251.944 143.356 252.165 144.216 252.177 145.183C252.177 146.138 251.956 146.992 251.514 147.744C251.084 148.496 250.493 149.087 249.741 149.517C249.001 149.947 248.153 150.162 247.198 150.162ZM247.198 148.908C247.891 148.908 248.511 148.747 249.061 148.424C249.61 148.102 250.04 147.66 250.35 147.099C250.66 146.538 250.816 145.899 250.816 145.183C250.816 144.467 250.66 143.828 250.35 143.267C250.04 142.694 249.61 142.246 249.061 141.923C248.511 141.601 247.891 141.44 247.198 141.44C246.506 141.44 245.885 141.601 245.335 141.923C244.786 142.246 244.35 142.694 244.028 143.267C243.718 143.828 243.562 144.467 243.562 145.183C243.562 145.899 243.718 146.538 244.028 147.099C244.35 147.66 244.786 148.102 245.335 148.424C245.885 148.747 246.506 148.908 247.198 148.908ZM258.011 150.162C257.306 150.162 256.608 150.042 255.916 149.804C255.223 149.565 254.662 149.207 254.232 148.729C254.101 148.586 254.047 148.424 254.071 148.245C254.095 148.066 254.184 147.911 254.34 147.78C254.507 147.66 254.68 147.613 254.859 147.636C255.038 147.66 255.187 147.738 255.307 147.869C255.593 148.204 255.969 148.46 256.435 148.639C256.912 148.818 257.438 148.908 258.011 148.908C258.894 148.908 259.533 148.759 259.927 148.46C260.321 148.15 260.524 147.78 260.536 147.35C260.536 146.92 260.333 146.568 259.927 146.293C259.521 146.007 258.853 145.786 257.921 145.631C256.715 145.44 255.832 145.105 255.271 144.628C254.71 144.15 254.429 143.583 254.429 142.926C254.429 142.317 254.59 141.81 254.913 141.404C255.235 140.998 255.665 140.694 256.202 140.491C256.739 140.288 257.33 140.186 257.975 140.186C258.775 140.186 259.462 140.324 260.035 140.598C260.62 140.873 261.091 141.243 261.449 141.709C261.569 141.864 261.617 142.025 261.593 142.192C261.569 142.359 261.473 142.497 261.306 142.604C261.163 142.688 260.996 142.717 260.805 142.694C260.626 142.658 260.47 142.568 260.339 142.425C260.041 142.079 259.694 141.828 259.3 141.673C258.906 141.506 258.453 141.422 257.939 141.422C257.283 141.422 256.757 141.559 256.363 141.834C255.969 142.097 255.772 142.431 255.772 142.837C255.772 143.111 255.844 143.35 255.987 143.553C256.142 143.756 256.399 143.935 256.757 144.09C257.127 144.246 257.641 144.377 258.297 144.484C259.193 144.628 259.897 144.843 260.411 145.129C260.936 145.404 261.306 145.732 261.521 146.114C261.748 146.484 261.861 146.89 261.861 147.332C261.861 147.893 261.694 148.389 261.36 148.818C261.038 149.236 260.584 149.565 259.999 149.804C259.426 150.042 258.763 150.162 258.011 150.162ZM273.324 150.162C272.381 150.162 271.539 149.947 270.799 149.517C270.07 149.075 269.491 148.478 269.061 147.726C268.644 146.974 268.435 146.126 268.435 145.183C268.435 144.228 268.638 143.374 269.044 142.622C269.449 141.87 270.005 141.279 270.709 140.849C271.414 140.407 272.225 140.186 273.145 140.186C273.873 140.186 274.542 140.33 275.151 140.616C275.771 140.903 276.315 141.332 276.78 141.906C276.912 142.049 276.959 142.204 276.924 142.371C276.888 142.526 276.786 142.664 276.619 142.783C276.488 142.879 276.339 142.914 276.171 142.891C276.016 142.855 275.879 142.765 275.76 142.622C275.067 141.834 274.195 141.44 273.145 141.44C272.476 141.44 271.885 141.601 271.372 141.923C270.87 142.246 270.476 142.688 270.19 143.249C269.915 143.81 269.778 144.455 269.778 145.183C269.778 145.899 269.927 146.538 270.226 147.099C270.524 147.66 270.942 148.102 271.479 148.424C272.016 148.747 272.631 148.908 273.324 148.908C273.789 148.908 274.213 148.848 274.595 148.729C274.989 148.598 275.336 148.401 275.634 148.138C275.777 148.019 275.927 147.953 276.082 147.941C276.237 147.929 276.38 147.977 276.512 148.084C276.655 148.216 276.733 148.365 276.745 148.532C276.768 148.699 276.715 148.842 276.583 148.962C275.712 149.762 274.625 150.162 273.324 150.162ZM283.796 150.162C282.841 150.162 281.987 149.947 281.235 149.517C280.483 149.087 279.892 148.496 279.462 147.744C279.032 146.992 278.817 146.138 278.817 145.183C278.817 144.216 279.032 143.356 279.462 142.604C279.892 141.852 280.483 141.261 281.235 140.831C281.987 140.401 282.841 140.186 283.796 140.186C284.751 140.186 285.599 140.401 286.339 140.831C287.091 141.261 287.682 141.852 288.112 142.604C288.542 143.356 288.763 144.216 288.775 145.183C288.775 146.138 288.554 146.992 288.112 147.744C287.682 148.496 287.091 149.087 286.339 149.517C285.599 149.947 284.751 150.162 283.796 150.162ZM283.796 148.908C284.488 148.908 285.109 148.747 285.658 148.424C286.208 148.102 286.637 147.66 286.948 147.099C287.258 146.538 287.414 145.899 287.414 145.183C287.414 144.467 287.258 143.828 286.948 143.267C286.637 142.694 286.208 142.246 285.658 141.923C285.109 141.601 284.488 141.44 283.796 141.44C283.103 141.44 282.483 141.601 281.933 141.923C281.384 142.246 280.948 142.694 280.626 143.267C280.316 143.828 280.16 144.467 280.16 145.183C280.16 145.899 280.316 146.538 280.626 147.099C280.948 147.66 281.384 148.102 281.933 148.424C282.483 148.747 283.103 148.908 283.796 148.908ZM304.423 150.072C304.22 150.072 304.053 150.012 303.922 149.893C303.79 149.762 303.725 149.595 303.725 149.392V144.234C303.725 143.386 303.504 142.717 303.062 142.228C302.62 141.726 302.053 141.476 301.361 141.476C300.62 141.476 300.011 141.726 299.534 142.228C299.068 142.717 298.841 143.374 298.853 144.198H297.617C297.629 143.398 297.803 142.694 298.137 142.085C298.471 141.476 298.931 141.004 299.516 140.67C300.101 140.335 300.764 140.168 301.504 140.168C302.208 140.168 302.829 140.335 303.366 140.67C303.916 141.004 304.339 141.476 304.638 142.085C304.948 142.694 305.104 143.41 305.104 144.234V149.392C305.104 149.595 305.038 149.762 304.907 149.893C304.787 150.012 304.626 150.072 304.423 150.072ZM291.887 150.072C291.672 150.072 291.498 150.012 291.367 149.893C291.248 149.762 291.188 149.595 291.188 149.392V140.974C291.188 140.771 291.248 140.604 291.367 140.473C291.498 140.341 291.672 140.276 291.887 140.276C292.089 140.276 292.251 140.341 292.37 140.473C292.501 140.604 292.567 140.771 292.567 140.974V149.392C292.567 149.595 292.501 149.762 292.37 149.893C292.251 150.012 292.089 150.072 291.887 150.072ZM298.173 150.072C297.97 150.072 297.803 150.012 297.671 149.893C297.54 149.762 297.474 149.595 297.474 149.392V144.234C297.474 143.386 297.253 142.717 296.812 142.228C296.37 141.726 295.803 141.476 295.11 141.476C294.37 141.476 293.761 141.72 293.283 142.21C292.806 142.688 292.567 143.314 292.567 144.09H291.582C291.606 143.326 291.773 142.652 292.084 142.067C292.406 141.47 292.842 141.004 293.391 140.67C293.94 140.335 294.561 140.168 295.253 140.168C295.958 140.168 296.579 140.335 297.116 140.67C297.665 141.004 298.089 141.476 298.388 142.085C298.698 142.694 298.853 143.41 298.853 144.234V149.392C298.853 149.595 298.788 149.762 298.656 149.893C298.537 150.012 298.376 150.072 298.173 150.072ZM118.538 168.162C117.594 168.162 116.753 167.947 116.012 167.517C115.284 167.075 114.705 166.478 114.275 165.726C113.857 164.974 113.648 164.126 113.648 163.183C113.648 162.228 113.851 161.374 114.257 160.622C114.663 159.87 115.218 159.279 115.923 158.849C116.627 158.407 117.439 158.186 118.358 158.186C119.087 158.186 119.755 158.33 120.364 158.616C120.985 158.903 121.528 159.332 121.994 159.906C122.125 160.049 122.173 160.204 122.137 160.371C122.101 160.526 122 160.664 121.833 160.783C121.702 160.879 121.552 160.914 121.385 160.891C121.23 160.855 121.093 160.765 120.973 160.622C120.281 159.834 119.409 159.44 118.358 159.44C117.69 159.44 117.099 159.601 116.585 159.923C116.084 160.246 115.69 160.688 115.403 161.249C115.129 161.81 114.992 162.455 114.992 163.183C114.992 163.899 115.141 164.538 115.439 165.099C115.738 165.66 116.156 166.102 116.693 166.424C117.23 166.747 117.845 166.908 118.538 166.908C119.003 166.908 119.427 166.848 119.809 166.729C120.203 166.598 120.549 166.401 120.848 166.138C120.991 166.019 121.14 165.953 121.296 165.941C121.451 165.929 121.594 165.977 121.725 166.084C121.869 166.216 121.946 166.365 121.958 166.532C121.982 166.699 121.928 166.842 121.797 166.962C120.925 167.762 119.839 168.162 118.538 168.162ZM129.01 168.162C128.054 168.162 127.201 167.947 126.449 167.517C125.696 167.087 125.105 166.496 124.676 165.744C124.246 164.992 124.031 164.138 124.031 163.183C124.031 162.216 124.246 161.356 124.676 160.604C125.105 159.852 125.696 159.261 126.449 158.831C127.201 158.401 128.054 158.186 129.01 158.186C129.965 158.186 130.812 158.401 131.553 158.831C132.305 159.261 132.896 159.852 133.326 160.604C133.756 161.356 133.976 162.216 133.988 163.183C133.988 164.138 133.767 164.992 133.326 165.744C132.896 166.496 132.305 167.087 131.553 167.517C130.812 167.947 129.965 168.162 129.01 168.162ZM129.01 166.908C129.702 166.908 130.323 166.747 130.872 166.424C131.421 166.102 131.851 165.66 132.162 165.099C132.472 164.538 132.627 163.899 132.627 163.183C132.627 162.467 132.472 161.828 132.162 161.267C131.851 160.694 131.421 160.246 130.872 159.923C130.323 159.601 129.702 159.44 129.01 159.44C128.317 159.44 127.696 159.601 127.147 159.923C126.598 160.246 126.162 160.694 125.84 161.267C125.529 161.828 125.374 162.467 125.374 163.183C125.374 163.899 125.529 164.538 125.84 165.099C126.162 165.66 126.598 166.102 127.147 166.424C127.696 166.747 128.317 166.908 129.01 166.908ZM144.801 168.072C144.598 168.072 144.431 168.006 144.3 167.875C144.168 167.744 144.103 167.583 144.103 167.392V162.735C144.103 161.995 143.959 161.386 143.673 160.908C143.398 160.431 143.016 160.073 142.527 159.834C142.049 159.595 141.506 159.476 140.897 159.476C140.312 159.476 139.781 159.589 139.303 159.816C138.837 160.043 138.467 160.353 138.193 160.747C137.918 161.141 137.781 161.589 137.781 162.09H136.796C136.82 161.338 137.023 160.67 137.405 160.085C137.787 159.488 138.294 159.022 138.927 158.688C139.56 158.341 140.264 158.168 141.04 158.168C141.888 158.168 142.646 158.347 143.315 158.706C143.983 159.052 144.509 159.565 144.891 160.246C145.285 160.926 145.482 161.756 145.482 162.735V167.392C145.482 167.583 145.416 167.744 145.285 167.875C145.153 168.006 144.992 168.072 144.801 168.072ZM137.1 168.072C136.885 168.072 136.712 168.012 136.581 167.893C136.461 167.762 136.402 167.595 136.402 167.392V158.974C136.402 158.759 136.461 158.592 136.581 158.473C136.712 158.341 136.885 158.276 137.1 158.276C137.303 158.276 137.464 158.341 137.584 158.473C137.715 158.592 137.781 158.759 137.781 158.974V167.392C137.781 167.595 137.715 167.762 137.584 167.893C137.464 168.012 137.303 168.072 137.1 168.072ZM152.086 168.072C151.453 168.072 150.886 167.923 150.385 167.624C149.895 167.326 149.507 166.92 149.22 166.407C148.934 165.881 148.791 165.284 148.791 164.616V155.858C148.791 155.655 148.85 155.488 148.97 155.357C149.101 155.225 149.268 155.16 149.471 155.16C149.674 155.16 149.841 155.225 149.973 155.357C150.104 155.488 150.17 155.655 150.17 155.858V164.616C150.17 165.225 150.349 165.726 150.707 166.12C151.065 166.502 151.525 166.693 152.086 166.693H152.569C152.761 166.693 152.916 166.759 153.035 166.89C153.155 167.021 153.214 167.189 153.214 167.392C153.214 167.595 153.143 167.762 152.999 167.893C152.856 168.012 152.677 168.072 152.462 168.072H152.086ZM147.627 159.834C147.447 159.834 147.298 159.78 147.179 159.673C147.059 159.553 147 159.41 147 159.243C147 159.064 147.059 158.921 147.179 158.813C147.298 158.694 147.447 158.634 147.627 158.634H152.193C152.372 158.634 152.522 158.694 152.641 158.813C152.761 158.921 152.82 159.064 152.82 159.243C152.82 159.41 152.761 159.553 152.641 159.673C152.522 159.78 152.372 159.834 152.193 159.834H147.627ZM159.632 168.162C158.665 168.162 157.805 167.953 157.053 167.535C156.313 167.105 155.728 166.514 155.298 165.762C154.88 165.01 154.671 164.15 154.671 163.183C154.671 162.204 154.868 161.344 155.262 160.604C155.668 159.852 156.223 159.261 156.928 158.831C157.632 158.401 158.444 158.186 159.363 158.186C160.271 158.186 161.059 158.395 161.727 158.813C162.408 159.219 162.933 159.786 163.303 160.514C163.673 161.243 163.858 162.073 163.858 163.004C163.858 163.195 163.799 163.35 163.679 163.469C163.56 163.577 163.405 163.631 163.214 163.631H155.602V162.484H163.357L162.587 163.04C162.599 162.347 162.473 161.726 162.211 161.177C161.948 160.628 161.572 160.198 161.083 159.888C160.605 159.577 160.032 159.422 159.363 159.422C158.683 159.422 158.086 159.583 157.572 159.906C157.059 160.228 156.659 160.676 156.372 161.249C156.098 161.81 155.96 162.455 155.96 163.183C155.96 163.911 156.116 164.556 156.426 165.117C156.748 165.678 157.184 166.12 157.733 166.442C158.283 166.765 158.915 166.926 159.632 166.926C160.062 166.926 160.492 166.854 160.921 166.711C161.363 166.556 161.715 166.365 161.978 166.138C162.109 166.03 162.259 165.977 162.426 165.977C162.593 165.965 162.736 166.007 162.856 166.102C163.011 166.245 163.088 166.401 163.088 166.568C163.1 166.735 163.035 166.878 162.891 166.998C162.497 167.332 161.996 167.612 161.387 167.839C160.778 168.054 160.193 168.162 159.632 168.162ZM170.185 168.18C169.337 168.18 168.579 168.006 167.911 167.66C167.242 167.302 166.711 166.783 166.317 166.102C165.935 165.422 165.744 164.592 165.744 163.613V158.956C165.744 158.765 165.809 158.604 165.941 158.473C166.072 158.341 166.233 158.276 166.424 158.276C166.627 158.276 166.794 158.341 166.926 158.473C167.057 158.604 167.123 158.765 167.123 158.956V163.613C167.123 164.353 167.26 164.962 167.534 165.439C167.821 165.917 168.203 166.275 168.681 166.514C169.17 166.753 169.719 166.872 170.328 166.872C170.913 166.872 171.439 166.759 171.904 166.532C172.382 166.305 172.758 165.995 173.033 165.601C173.307 165.207 173.445 164.759 173.445 164.257H174.43C174.394 165.01 174.185 165.684 173.803 166.281C173.433 166.866 172.931 167.332 172.298 167.678C171.666 168.012 170.961 168.18 170.185 168.18ZM174.125 168.072C173.922 168.072 173.755 168.012 173.624 167.893C173.504 167.762 173.445 167.589 173.445 167.374V158.956C173.445 158.753 173.504 158.592 173.624 158.473C173.755 158.341 173.922 158.276 174.125 158.276C174.328 158.276 174.495 158.341 174.627 158.473C174.758 158.592 174.824 158.753 174.824 158.956V167.374C174.824 167.589 174.758 167.762 174.627 167.893C174.495 168.012 174.328 168.072 174.125 168.072ZM170.257 156.789C170.066 156.789 169.898 156.724 169.755 156.592C169.624 156.449 169.558 156.282 169.558 156.091C169.558 155.9 169.612 155.745 169.719 155.625L171.743 153.601C171.874 153.47 172.036 153.404 172.227 153.404C172.43 153.404 172.597 153.476 172.728 153.619C172.859 153.751 172.925 153.918 172.925 154.121C172.925 154.204 172.907 154.288 172.871 154.372C172.848 154.455 172.8 154.527 172.728 154.586L170.722 156.61C170.603 156.73 170.448 156.789 170.257 156.789ZM182.234 168.162C181.29 168.162 180.443 167.947 179.691 167.517C178.938 167.075 178.341 166.478 177.9 165.726C177.47 164.974 177.255 164.12 177.255 163.165C177.255 162.222 177.464 161.374 177.882 160.622C178.311 159.87 178.891 159.279 179.619 158.849C180.347 158.407 181.171 158.186 182.09 158.186C182.89 158.186 183.613 158.359 184.257 158.706C184.902 159.04 185.421 159.488 185.815 160.049V154.783C185.815 154.569 185.881 154.401 186.012 154.282C186.144 154.151 186.311 154.085 186.514 154.085C186.717 154.085 186.884 154.151 187.015 154.282C187.147 154.401 187.212 154.569 187.212 154.783V163.237C187.189 164.168 186.956 165.01 186.514 165.762C186.084 166.502 185.493 167.087 184.741 167.517C184.001 167.947 183.165 168.162 182.234 168.162ZM182.234 166.908C182.926 166.908 183.541 166.747 184.078 166.424C184.627 166.09 185.057 165.642 185.368 165.081C185.69 164.52 185.851 163.881 185.851 163.165C185.851 162.461 185.69 161.828 185.368 161.267C185.057 160.694 184.627 160.246 184.078 159.923C183.541 159.601 182.926 159.44 182.234 159.44C181.553 159.44 180.938 159.601 180.389 159.923C179.84 160.246 179.404 160.694 179.082 161.267C178.759 161.828 178.598 162.461 178.598 163.165C178.598 163.881 178.759 164.52 179.082 165.081C179.404 165.642 179.84 166.09 180.389 166.424C180.938 166.747 181.553 166.908 182.234 166.908ZM194.627 168.162C193.672 168.162 192.819 167.947 192.066 167.517C191.314 167.087 190.723 166.496 190.293 165.744C189.864 164.992 189.649 164.138 189.649 163.183C189.649 162.216 189.864 161.356 190.293 160.604C190.723 159.852 191.314 159.261 192.066 158.831C192.819 158.401 193.672 158.186 194.627 158.186C195.583 158.186 196.43 158.401 197.171 158.831C197.923 159.261 198.514 159.852 198.944 160.604C199.373 161.356 199.594 162.216 199.606 163.183C199.606 164.138 199.385 164.992 198.944 165.744C198.514 166.496 197.923 167.087 197.171 167.517C196.43 167.947 195.583 168.162 194.627 168.162ZM194.627 166.908C195.32 166.908 195.941 166.747 196.49 166.424C197.039 166.102 197.469 165.66 197.779 165.099C198.09 164.538 198.245 163.899 198.245 163.183C198.245 162.467 198.09 161.828 197.779 161.267C197.469 160.694 197.039 160.246 196.49 159.923C195.941 159.601 195.32 159.44 194.627 159.44C193.935 159.44 193.314 159.601 192.765 159.923C192.216 160.246 191.78 160.694 191.457 161.267C191.147 161.828 190.992 162.467 190.992 163.183C190.992 163.899 191.147 164.538 191.457 165.099C191.78 165.66 192.216 166.102 192.765 166.424C193.314 166.747 193.935 166.908 194.627 166.908ZM211.959 168.162C211.027 168.162 210.186 167.947 209.433 167.517C208.693 167.087 208.102 166.502 207.66 165.762C207.231 165.01 207.01 164.168 206.998 163.237V154.783C206.998 154.569 207.057 154.401 207.177 154.282C207.308 154.151 207.481 154.085 207.696 154.085C207.899 154.085 208.06 154.151 208.18 154.282C208.311 154.401 208.377 154.569 208.377 154.783V160.049C208.771 159.488 209.29 159.04 209.935 158.706C210.592 158.359 211.32 158.186 212.12 158.186C213.039 158.186 213.863 158.407 214.591 158.849C215.32 159.279 215.893 159.87 216.311 160.622C216.74 161.374 216.955 162.222 216.955 163.165C216.955 164.12 216.734 164.974 216.293 165.726C215.863 166.478 215.272 167.075 214.52 167.517C213.767 167.947 212.914 168.162 211.959 168.162ZM211.959 166.908C212.651 166.908 213.272 166.747 213.821 166.424C214.37 166.09 214.8 165.642 215.111 165.081C215.433 164.52 215.594 163.881 215.594 163.165C215.594 162.461 215.433 161.828 215.111 161.267C214.8 160.694 214.37 160.246 213.821 159.923C213.272 159.601 212.651 159.44 211.959 159.44C211.278 159.44 210.663 159.601 210.114 159.923C209.565 160.246 209.135 160.694 208.825 161.267C208.514 161.828 208.359 162.461 208.359 163.165C208.359 163.881 208.514 164.52 208.825 165.081C209.135 165.642 209.565 166.09 210.114 166.424C210.663 166.747 211.278 166.908 211.959 166.908ZM223.708 168.162C222.788 168.162 221.965 167.947 221.236 167.517C220.508 167.075 219.929 166.478 219.499 165.726C219.081 164.974 218.872 164.126 218.872 163.183C218.872 162.228 219.087 161.374 219.517 160.622C219.959 159.87 220.556 159.279 221.308 158.849C222.06 158.407 222.908 158.186 223.851 158.186C224.794 158.186 225.636 158.407 226.376 158.849C227.128 159.279 227.719 159.87 228.149 160.622C228.591 161.374 228.818 162.228 228.83 163.183L228.275 163.613C228.275 164.472 228.072 165.248 227.666 165.941C227.272 166.621 226.728 167.165 226.036 167.571C225.355 167.965 224.579 168.162 223.708 168.162ZM223.851 166.908C224.543 166.908 225.158 166.747 225.696 166.424C226.245 166.102 226.675 165.66 226.985 165.099C227.307 164.526 227.469 163.887 227.469 163.183C227.469 162.467 227.307 161.828 226.985 161.267C226.675 160.705 226.245 160.264 225.696 159.941C225.158 159.607 224.543 159.44 223.851 159.44C223.17 159.44 222.556 159.607 222.006 159.941C221.457 160.264 221.021 160.705 220.699 161.267C220.377 161.828 220.215 162.467 220.215 163.183C220.215 163.887 220.377 164.526 220.699 165.099C221.021 165.66 221.457 166.102 222.006 166.424C222.556 166.747 223.17 166.908 223.851 166.908ZM228.131 168.072C227.928 168.072 227.761 168.012 227.63 167.893C227.498 167.762 227.433 167.595 227.433 167.392V164.329L227.773 162.914L228.83 163.183V167.392C228.83 167.595 228.764 167.762 228.633 167.893C228.501 168.012 228.334 168.072 228.131 168.072ZM223.726 156.789C223.535 156.789 223.367 156.724 223.224 156.592C223.093 156.449 223.027 156.282 223.027 156.091C223.027 155.9 223.081 155.745 223.188 155.625L225.212 153.601C225.343 153.47 225.505 153.404 225.696 153.404C225.899 153.404 226.066 153.476 226.197 153.619C226.328 153.751 226.394 153.918 226.394 154.121C226.394 154.204 226.376 154.288 226.34 154.372C226.316 154.455 226.269 154.527 226.197 154.586L224.191 156.61C224.072 156.73 223.917 156.789 223.726 156.789ZM234.664 168.162C233.959 168.162 233.261 168.042 232.568 167.804C231.876 167.565 231.315 167.207 230.885 166.729C230.754 166.586 230.7 166.424 230.724 166.245C230.748 166.066 230.837 165.911 230.992 165.78C231.16 165.66 231.333 165.613 231.512 165.636C231.691 165.66 231.84 165.738 231.96 165.869C232.246 166.204 232.622 166.46 233.088 166.639C233.565 166.818 234.091 166.908 234.664 166.908C235.547 166.908 236.186 166.759 236.58 166.46C236.974 166.15 237.177 165.78 237.189 165.35C237.189 164.92 236.986 164.568 236.58 164.293C236.174 164.007 235.506 163.786 234.574 163.631C233.368 163.44 232.485 163.105 231.924 162.628C231.363 162.15 231.082 161.583 231.082 160.926C231.082 160.317 231.243 159.81 231.566 159.404C231.888 158.998 232.318 158.694 232.855 158.491C233.392 158.288 233.983 158.186 234.628 158.186C235.428 158.186 236.114 158.324 236.688 158.598C237.273 158.873 237.744 159.243 238.102 159.709C238.222 159.864 238.27 160.025 238.246 160.192C238.222 160.359 238.126 160.497 237.959 160.604C237.816 160.688 237.649 160.717 237.458 160.694C237.279 160.658 237.123 160.568 236.992 160.425C236.694 160.079 236.347 159.828 235.953 159.673C235.559 159.506 235.106 159.422 234.592 159.422C233.935 159.422 233.41 159.559 233.016 159.834C232.622 160.097 232.425 160.431 232.425 160.837C232.425 161.111 232.497 161.35 232.64 161.553C232.795 161.756 233.052 161.935 233.41 162.09C233.78 162.246 234.294 162.377 234.95 162.484C235.846 162.628 236.55 162.843 237.064 163.129C237.589 163.404 237.959 163.732 238.174 164.114C238.401 164.484 238.514 164.89 238.514 165.332C238.514 165.893 238.347 166.389 238.013 166.818C237.69 167.236 237.237 167.565 236.652 167.804C236.079 168.042 235.416 168.162 234.664 168.162ZM241.614 168.072C241.399 168.072 241.226 168.012 241.094 167.893C240.975 167.762 240.915 167.589 240.915 167.374V158.974C240.915 158.759 240.975 158.592 241.094 158.473C241.226 158.341 241.399 158.276 241.614 158.276C241.817 158.276 241.978 158.341 242.097 158.473C242.229 158.592 242.294 158.759 242.294 158.974V167.374C242.294 167.589 242.229 167.762 242.097 167.893C241.978 168.012 241.817 168.072 241.614 168.072ZM241.596 156.413C241.333 156.413 241.106 156.318 240.915 156.127C240.724 155.936 240.629 155.703 240.629 155.428C240.629 155.13 240.724 154.897 240.915 154.73C241.118 154.551 241.351 154.461 241.614 154.461C241.864 154.461 242.085 154.551 242.276 154.73C242.479 154.897 242.581 155.13 242.581 155.428C242.581 155.703 242.485 155.936 242.294 156.127C242.103 156.318 241.87 156.413 241.596 156.413ZM249.907 168.162C248.964 168.162 248.122 167.947 247.382 167.517C246.653 167.075 246.074 166.478 245.644 165.726C245.227 164.974 245.018 164.126 245.018 163.183C245.018 162.228 245.221 161.374 245.627 160.622C246.032 159.87 246.588 159.279 247.292 158.849C247.996 158.407 248.808 158.186 249.728 158.186C250.456 158.186 251.125 158.33 251.734 158.616C252.354 158.903 252.898 159.332 253.363 159.906C253.495 160.049 253.542 160.204 253.507 160.371C253.471 160.526 253.369 160.664 253.202 160.783C253.071 160.879 252.922 160.914 252.754 160.891C252.599 160.855 252.462 160.765 252.342 160.622C251.65 159.834 250.778 159.44 249.728 159.44C249.059 159.44 248.468 159.601 247.955 159.923C247.453 160.246 247.059 160.688 246.773 161.249C246.498 161.81 246.361 162.455 246.361 163.183C246.361 163.899 246.51 164.538 246.809 165.099C247.107 165.66 247.525 166.102 248.062 166.424C248.599 166.747 249.214 166.908 249.907 166.908C250.372 166.908 250.796 166.848 251.178 166.729C251.572 166.598 251.919 166.401 252.217 166.138C252.36 166.019 252.51 165.953 252.665 165.941C252.82 165.929 252.963 165.977 253.095 166.084C253.238 166.216 253.316 166.365 253.327 166.532C253.351 166.699 253.298 166.842 253.166 166.962C252.295 167.762 251.208 168.162 249.907 168.162ZM260.379 168.162C259.424 168.162 258.57 167.947 257.818 167.517C257.066 167.087 256.475 166.496 256.045 165.744C255.615 164.992 255.4 164.138 255.4 163.183C255.4 162.216 255.615 161.356 256.045 160.604C256.475 159.852 257.066 159.261 257.818 158.831C258.57 158.401 259.424 158.186 260.379 158.186C261.334 158.186 262.182 158.401 262.922 158.831C263.674 159.261 264.265 159.852 264.695 160.604C265.125 161.356 265.346 162.216 265.358 163.183C265.358 164.138 265.137 164.992 264.695 165.744C264.265 166.496 263.674 167.087 262.922 167.517C262.182 167.947 261.334 168.162 260.379 168.162ZM260.379 166.908C261.071 166.908 261.692 166.747 262.241 166.424C262.791 166.102 263.22 165.66 263.531 165.099C263.841 164.538 263.996 163.899 263.996 163.183C263.996 162.467 263.841 161.828 263.531 161.267C263.22 160.694 262.791 160.246 262.241 159.923C261.692 159.601 261.071 159.44 260.379 159.44C259.686 159.44 259.065 159.601 258.516 159.923C257.967 160.246 257.531 160.694 257.209 161.267C256.898 161.828 256.743 162.467 256.743 163.183C256.743 163.899 256.898 164.538 257.209 165.099C257.531 165.66 257.967 166.102 258.516 166.424C259.065 166.747 259.686 166.908 260.379 166.908ZM72.927 206.072C72.736 206.072 72.5688 206.006 72.4256 205.875C72.2942 205.732 72.2286 205.565 72.2286 205.374V192.783C72.2286 192.581 72.2942 192.413 72.4256 192.282C72.5688 192.151 72.736 192.085 72.927 192.085C73.2136 192.085 73.4225 192.204 73.5539 192.443L79.5893 204.442H78.9804L84.9083 192.443C85.0516 192.204 85.2605 192.085 85.5351 192.085C85.7262 192.085 85.8874 192.151 86.0187 192.282C86.15 192.413 86.2157 192.581 86.2157 192.783V205.374C86.2157 205.565 86.15 205.732 86.0187 205.875C85.8874 206.006 85.7262 206.072 85.5351 206.072C85.3322 206.072 85.159 206.006 85.0158 205.875C84.8844 205.732 84.8188 205.565 84.8188 205.374V194.592L85.1232 194.61L79.84 205.41C79.7087 205.636 79.5057 205.75 79.2311 205.75C78.9326 205.75 78.7177 205.607 78.5864 205.32L73.2673 194.682L73.6255 194.592V205.374C73.6255 205.565 73.5539 205.732 73.4106 205.875C73.2792 206.006 73.1181 206.072 72.927 206.072ZM93.6739 206.162C92.7546 206.162 91.9307 205.947 91.2024 205.517C90.4741 205.075 89.8951 204.478 89.4652 203.726C89.0474 202.974 88.8384 202.126 88.8384 201.183C88.8384 200.228 89.0533 199.374 89.4832 198.622C89.9249 197.87 90.5219 197.279 91.2741 196.849C92.0263 196.407 92.874 196.186 93.8172 196.186C94.7604 196.186 95.6021 196.407 96.3424 196.849C97.0946 197.279 97.6856 197.87 98.1154 198.622C98.5572 199.374 98.784 200.228 98.796 201.183L98.2408 201.613C98.2408 202.472 98.0378 203.248 97.6319 203.941C97.2379 204.621 96.6946 205.165 96.0021 205.571C95.3216 205.965 94.5455 206.162 93.6739 206.162ZM93.8172 204.908C94.5097 204.908 95.1246 204.747 95.6618 204.424C96.2111 204.102 96.6409 203.66 96.9513 203.099C97.2737 202.526 97.4349 201.887 97.4349 201.183C97.4349 200.467 97.2737 199.828 96.9513 199.267C96.6409 198.705 96.2111 198.264 95.6618 197.941C95.1246 197.607 94.5097 197.44 93.8172 197.44C93.1366 197.44 92.5218 197.607 91.9725 197.941C91.4233 198.264 90.9875 198.705 90.6652 199.267C90.3428 199.828 90.1816 200.467 90.1816 201.183C90.1816 201.887 90.3428 202.526 90.6652 203.099C90.9875 203.66 91.4233 204.102 91.9725 204.424C92.5218 204.747 93.1366 204.908 93.8172 204.908ZM98.0975 206.072C97.8945 206.072 97.7274 206.012 97.596 205.893C97.4647 205.762 97.399 205.595 97.399 205.392V202.329L97.7393 200.914L98.796 201.183V205.392C98.796 205.595 98.7303 205.762 98.599 205.893C98.4676 206.012 98.3005 206.072 98.0975 206.072ZM105.042 206.072C104.409 206.072 103.842 205.923 103.341 205.624C102.851 205.326 102.463 204.92 102.176 204.407C101.89 203.881 101.747 203.284 101.747 202.616V193.858C101.747 193.655 101.806 193.488 101.926 193.357C102.057 193.225 102.224 193.16 102.427 193.16C102.63 193.16 102.797 193.225 102.929 193.357C103.06 193.488 103.126 193.655 103.126 193.858V202.616C103.126 203.225 103.305 203.726 103.663 204.12C104.021 204.502 104.481 204.693 105.042 204.693H105.526C105.717 204.693 105.872 204.759 105.991 204.89C106.111 205.021 106.17 205.189 106.17 205.392C106.17 205.595 106.099 205.762 105.955 205.893C105.812 206.012 105.633 206.072 105.418 206.072H105.042ZM100.583 197.834C100.403 197.834 100.254 197.78 100.135 197.673C100.015 197.553 99.9557 197.41 99.9557 197.243C99.9557 197.064 100.015 196.921 100.135 196.813C100.254 196.694 100.403 196.634 100.583 196.634H105.149C105.329 196.634 105.478 196.694 105.597 196.813C105.717 196.921 105.776 197.064 105.776 197.243C105.776 197.41 105.717 197.553 105.597 197.673C105.478 197.78 105.329 197.834 105.149 197.834H100.583ZM112.588 206.162C111.621 206.162 110.761 205.953 110.009 205.535C109.269 205.105 108.684 204.514 108.254 203.762C107.836 203.01 107.627 202.15 107.627 201.183C107.627 200.204 107.824 199.344 108.218 198.604C108.624 197.852 109.179 197.261 109.884 196.831C110.588 196.401 111.4 196.186 112.319 196.186C113.227 196.186 114.015 196.395 114.683 196.813C115.364 197.219 115.889 197.786 116.259 198.514C116.629 199.243 116.814 200.073 116.814 201.004C116.814 201.195 116.755 201.35 116.635 201.469C116.516 201.577 116.361 201.631 116.17 201.631H108.558V200.484H116.313L115.543 201.04C115.555 200.347 115.43 199.726 115.167 199.177C114.904 198.628 114.528 198.198 114.039 197.888C113.561 197.577 112.988 197.422 112.319 197.422C111.639 197.422 111.042 197.583 110.528 197.906C110.015 198.228 109.615 198.676 109.328 199.249C109.054 199.81 108.917 200.455 108.917 201.183C108.917 201.911 109.072 202.556 109.382 203.117C109.705 203.678 110.14 204.12 110.69 204.442C111.239 204.765 111.872 204.926 112.588 204.926C113.018 204.926 113.448 204.854 113.877 204.711C114.319 204.556 114.671 204.365 114.934 204.138C115.065 204.03 115.215 203.977 115.382 203.977C115.549 203.965 115.692 204.007 115.812 204.102C115.967 204.245 116.044 204.401 116.044 204.568C116.056 204.735 115.991 204.878 115.847 204.998C115.453 205.332 114.952 205.612 114.343 205.839C113.734 206.054 113.149 206.162 112.588 206.162ZM119.452 200.037C119.488 199.296 119.679 198.634 120.025 198.049C120.383 197.464 120.843 197.004 121.404 196.67C121.977 196.335 122.61 196.168 123.302 196.168C123.851 196.168 124.275 196.246 124.574 196.401C124.872 196.556 124.986 196.783 124.914 197.082C124.866 197.261 124.783 197.38 124.663 197.44C124.556 197.5 124.419 197.523 124.251 197.512C124.096 197.5 123.917 197.488 123.714 197.476C123.046 197.416 122.449 197.488 121.923 197.691C121.41 197.882 120.998 198.18 120.688 198.586C120.389 198.992 120.24 199.476 120.24 200.037H119.452ZM119.559 206.072C119.344 206.072 119.177 206.012 119.058 205.893C118.938 205.774 118.879 205.607 118.879 205.392V196.956C118.879 196.741 118.938 196.574 119.058 196.455C119.177 196.335 119.344 196.276 119.559 196.276C119.774 196.276 119.941 196.335 120.061 196.455C120.18 196.574 120.24 196.741 120.24 196.956V205.392C120.24 205.607 120.18 205.774 120.061 205.893C119.941 206.012 119.774 206.072 119.559 206.072ZM127.798 206.072C127.583 206.072 127.41 206.012 127.278 205.893C127.159 205.762 127.099 205.589 127.099 205.374V196.974C127.099 196.759 127.159 196.592 127.278 196.473C127.41 196.341 127.583 196.276 127.798 196.276C128.001 196.276 128.162 196.341 128.281 196.473C128.413 196.592 128.478 196.759 128.478 196.974V205.374C128.478 205.589 128.413 205.762 128.281 205.893C128.162 206.012 128.001 206.072 127.798 206.072ZM127.78 194.413C127.517 194.413 127.29 194.318 127.099 194.127C126.908 193.936 126.813 193.703 126.813 193.428C126.813 193.13 126.908 192.897 127.099 192.73C127.302 192.551 127.535 192.461 127.798 192.461C128.048 192.461 128.269 192.551 128.46 192.73C128.663 192.897 128.765 193.13 128.765 193.428C128.765 193.703 128.669 193.936 128.478 194.127C128.287 194.318 128.054 194.413 127.78 194.413ZM136.037 206.162C135.118 206.162 134.294 205.947 133.566 205.517C132.837 205.075 132.258 204.478 131.828 203.726C131.41 202.974 131.201 202.126 131.201 201.183C131.201 200.228 131.416 199.374 131.846 198.622C132.288 197.87 132.885 197.279 133.637 196.849C134.389 196.407 135.237 196.186 136.18 196.186C137.123 196.186 137.965 196.407 138.705 196.849C139.458 197.279 140.049 197.87 140.478 198.622C140.92 199.374 141.147 200.228 141.159 201.183L140.604 201.613C140.604 202.472 140.401 203.248 139.995 203.941C139.601 204.621 139.058 205.165 138.365 205.571C137.685 205.965 136.909 206.162 136.037 206.162ZM136.18 204.908C136.873 204.908 137.488 204.747 138.025 204.424C138.574 204.102 139.004 203.66 139.314 203.099C139.637 202.526 139.798 201.887 139.798 201.183C139.798 200.467 139.637 199.828 139.314 199.267C139.004 198.705 138.574 198.264 138.025 197.941C137.488 197.607 136.873 197.44 136.18 197.44C135.5 197.44 134.885 197.607 134.336 197.941C133.786 198.264 133.351 198.705 133.028 199.267C132.706 199.828 132.545 200.467 132.545 201.183C132.545 201.887 132.706 202.526 133.028 203.099C133.351 203.66 133.786 204.102 134.336 204.424C134.885 204.747 135.5 204.908 136.18 204.908ZM140.461 206.072C140.258 206.072 140.09 206.012 139.959 205.893C139.828 205.762 139.762 205.595 139.762 205.392V202.329L140.102 200.914L141.159 201.183V205.392C141.159 205.595 141.093 205.762 140.962 205.893C140.831 206.012 140.664 206.072 140.461 206.072ZM153.01 206.162C152.067 206.162 151.219 205.947 150.467 205.517C149.715 205.075 149.118 204.478 148.676 203.726C148.246 202.974 148.031 202.12 148.031 201.165C148.031 200.222 148.24 199.374 148.658 198.622C149.088 197.87 149.667 197.279 150.395 196.849C151.124 196.407 151.947 196.186 152.867 196.186C153.667 196.186 154.389 196.359 155.034 196.706C155.679 197.04 156.198 197.488 156.592 198.049V192.783C156.592 192.569 156.658 192.401 156.789 192.282C156.92 192.151 157.087 192.085 157.29 192.085C157.493 192.085 157.661 192.151 157.792 192.282C157.923 192.401 157.989 192.569 157.989 192.783V201.237C157.965 202.168 157.732 203.01 157.29 203.762C156.861 204.502 156.27 205.087 155.517 205.517C154.777 205.947 153.941 206.162 153.01 206.162ZM153.01 204.908C153.703 204.908 154.317 204.747 154.855 204.424C155.404 204.09 155.834 203.642 156.144 203.081C156.467 202.52 156.628 201.881 156.628 201.165C156.628 200.461 156.467 199.828 156.144 199.267C155.834 198.694 155.404 198.246 154.855 197.923C154.317 197.601 153.703 197.44 153.01 197.44C152.33 197.44 151.715 197.601 151.165 197.923C150.616 198.246 150.18 198.694 149.858 199.267C149.536 199.828 149.374 200.461 149.374 201.165C149.374 201.881 149.536 202.52 149.858 203.081C150.18 203.642 150.616 204.09 151.165 204.424C151.715 204.747 152.33 204.908 153.01 204.908ZM165.386 206.162C164.419 206.162 163.559 205.953 162.807 205.535C162.067 205.105 161.482 204.514 161.052 203.762C160.634 203.01 160.425 202.15 160.425 201.183C160.425 200.204 160.622 199.344 161.016 198.604C161.422 197.852 161.977 197.261 162.682 196.831C163.386 196.401 164.198 196.186 165.117 196.186C166.025 196.186 166.813 196.395 167.481 196.813C168.162 197.219 168.687 197.786 169.057 198.514C169.427 199.243 169.613 200.073 169.613 201.004C169.613 201.195 169.553 201.35 169.433 201.469C169.314 201.577 169.159 201.631 168.968 201.631H161.356V200.484H169.111L168.341 201.04C168.353 200.347 168.228 199.726 167.965 199.177C167.702 198.628 167.326 198.198 166.837 197.888C166.359 197.577 165.786 197.422 165.117 197.422C164.437 197.422 163.84 197.583 163.326 197.906C162.813 198.228 162.413 198.676 162.126 199.249C161.852 199.81 161.715 200.455 161.715 201.183C161.715 201.911 161.87 202.556 162.18 203.117C162.503 203.678 162.938 204.12 163.488 204.442C164.037 204.765 164.67 204.926 165.386 204.926C165.816 204.926 166.246 204.854 166.675 204.711C167.117 204.556 167.469 204.365 167.732 204.138C167.863 204.03 168.013 203.977 168.18 203.977C168.347 203.965 168.49 204.007 168.61 204.102C168.765 204.245 168.842 204.401 168.842 204.568C168.854 204.735 168.789 204.878 168.645 204.998C168.251 205.332 167.75 205.612 167.141 205.839C166.532 206.054 165.947 206.162 165.386 206.162ZM180.971 206.162C180.052 206.162 179.228 205.947 178.5 205.517C177.771 205.075 177.192 204.478 176.762 203.726C176.344 202.974 176.136 202.126 176.136 201.183C176.136 200.228 176.35 199.374 176.78 198.622C177.222 197.87 177.819 197.279 178.571 196.849C179.323 196.407 180.171 196.186 181.114 196.186C182.058 196.186 182.899 196.407 183.64 196.849C184.392 197.279 184.983 197.87 185.413 198.622C185.854 199.374 186.081 200.228 186.093 201.183L185.538 201.613C185.538 202.472 185.335 203.248 184.929 203.941C184.535 204.621 183.992 205.165 183.299 205.571C182.619 205.965 181.843 206.162 180.971 206.162ZM181.114 204.908C181.807 204.908 182.422 204.747 182.959 204.424C183.508 204.102 183.938 203.66 184.248 203.099C184.571 202.526 184.732 201.887 184.732 201.183C184.732 200.467 184.571 199.828 184.248 199.267C183.938 198.705 183.508 198.264 182.959 197.941C182.422 197.607 181.807 197.44 181.114 197.44C180.434 197.44 179.819 197.607 179.27 197.941C178.72 198.264 178.285 198.705 177.962 199.267C177.64 199.828 177.479 200.467 177.479 201.183C177.479 201.887 177.64 202.526 177.962 203.099C178.285 203.66 178.72 204.102 179.27 204.424C179.819 204.747 180.434 204.908 181.114 204.908ZM185.395 206.072C185.192 206.072 185.024 206.012 184.893 205.893C184.762 205.762 184.696 205.595 184.696 205.392V202.329L185.036 200.914L186.093 201.183V205.392C186.093 205.595 186.027 205.762 185.896 205.893C185.765 206.012 185.598 206.072 185.395 206.072ZM189.205 210.263C188.99 210.263 188.817 210.197 188.686 210.066C188.566 209.947 188.506 209.779 188.506 209.564V201.111C188.518 200.18 188.739 199.344 189.169 198.604C189.611 197.852 190.202 197.261 190.942 196.831C191.694 196.401 192.536 196.186 193.467 196.186C194.423 196.186 195.276 196.407 196.028 196.849C196.781 197.279 197.372 197.87 197.801 198.622C198.243 199.374 198.464 200.228 198.464 201.183C198.464 202.126 198.249 202.974 197.819 203.726C197.401 204.478 196.828 205.075 196.1 205.517C195.372 205.947 194.548 206.162 193.629 206.162C192.829 206.162 192.1 205.995 191.444 205.66C190.799 205.314 190.279 204.86 189.885 204.299V209.564C189.885 209.779 189.82 209.947 189.688 210.066C189.569 210.197 189.408 210.263 189.205 210.263ZM193.467 204.908C194.16 204.908 194.781 204.747 195.33 204.424C195.879 204.102 196.309 203.66 196.619 203.099C196.942 202.526 197.103 201.887 197.103 201.183C197.103 200.467 196.942 199.828 196.619 199.267C196.309 198.705 195.879 198.264 195.33 197.941C194.781 197.607 194.16 197.44 193.467 197.44C192.787 197.44 192.172 197.607 191.623 197.941C191.073 198.264 190.644 198.705 190.333 199.267C190.023 199.828 189.868 200.467 189.868 201.183C189.868 201.887 190.023 202.526 190.333 203.099C190.644 203.66 191.073 204.102 191.623 204.424C192.172 204.747 192.787 204.908 193.467 204.908ZM205.36 206.162C204.404 206.162 203.551 205.947 202.799 205.517C202.046 205.087 201.455 204.496 201.026 203.744C200.596 202.992 200.381 202.138 200.381 201.183C200.381 200.216 200.596 199.356 201.026 198.604C201.455 197.852 202.046 197.261 202.799 196.831C203.551 196.401 204.404 196.186 205.36 196.186C206.315 196.186 207.163 196.401 207.903 196.831C208.655 197.261 209.246 197.852 209.676 198.604C210.106 199.356 210.326 200.216 210.338 201.183C210.338 202.138 210.118 202.992 209.676 203.744C209.246 204.496 208.655 205.087 207.903 205.517C207.163 205.947 206.315 206.162 205.36 206.162ZM205.36 204.908C206.052 204.908 206.673 204.747 207.222 204.424C207.771 204.102 208.201 203.66 208.512 203.099C208.822 202.538 208.977 201.899 208.977 201.183C208.977 200.467 208.822 199.828 208.512 199.267C208.201 198.694 207.771 198.246 207.222 197.923C206.673 197.601 206.052 197.44 205.36 197.44C204.667 197.44 204.046 197.601 203.497 197.923C202.948 198.246 202.512 198.694 202.19 199.267C201.879 199.828 201.724 200.467 201.724 201.183C201.724 201.899 201.879 202.538 202.19 203.099C202.512 203.66 202.948 204.102 203.497 204.424C204.046 204.747 204.667 204.908 205.36 204.908ZM213.737 206.072C213.522 206.072 213.349 206.012 213.217 205.893C213.098 205.762 213.038 205.589 213.038 205.374V196.974C213.038 196.759 213.098 196.592 213.217 196.473C213.349 196.341 213.522 196.276 213.737 196.276C213.94 196.276 214.101 196.341 214.22 196.473C214.352 196.592 214.417 196.759 214.417 196.974V205.374C214.417 205.589 214.352 205.762 214.22 205.893C214.101 206.012 213.94 206.072 213.737 206.072ZM213.719 194.413C213.456 194.413 213.229 194.318 213.038 194.127C212.847 193.936 212.752 193.703 212.752 193.428C212.752 193.13 212.847 192.897 213.038 192.73C213.241 192.551 213.474 192.461 213.737 192.461C213.988 192.461 214.208 192.551 214.399 192.73C214.602 192.897 214.704 193.13 214.704 193.428C214.704 193.703 214.608 193.936 214.417 194.127C214.226 194.318 213.994 194.413 213.719 194.413ZM222.119 206.162C221.164 206.162 220.311 205.947 219.558 205.517C218.806 205.087 218.215 204.496 217.785 203.744C217.356 202.992 217.141 202.138 217.141 201.183C217.141 200.216 217.356 199.356 217.785 198.604C218.215 197.852 218.806 197.261 219.558 196.831C220.311 196.401 221.164 196.186 222.119 196.186C223.075 196.186 223.922 196.401 224.663 196.831C225.415 197.261 226.006 197.852 226.436 198.604C226.865 199.356 227.086 200.216 227.098 201.183C227.098 202.138 226.877 202.992 226.436 203.744C226.006 204.496 225.415 205.087 224.663 205.517C223.922 205.947 223.075 206.162 222.119 206.162ZM222.119 204.908C222.812 204.908 223.433 204.747 223.982 204.424C224.531 204.102 224.961 203.66 225.272 203.099C225.582 202.538 225.737 201.899 225.737 201.183C225.737 200.467 225.582 199.828 225.272 199.267C224.961 198.694 224.531 198.246 223.982 197.923C223.433 197.601 222.812 197.44 222.119 197.44C221.427 197.44 220.806 197.601 220.257 197.923C219.708 198.246 219.272 198.694 218.95 199.267C218.639 199.828 218.484 200.467 218.484 201.183C218.484 201.899 218.639 202.538 218.95 203.099C219.272 203.66 219.708 204.102 220.257 204.424C220.806 204.747 221.427 204.908 222.119 204.908ZM238.806 206.162C237.887 206.162 237.063 205.947 236.335 205.517C235.606 205.075 235.027 204.478 234.597 203.726C234.179 202.974 233.971 202.126 233.971 201.183C233.971 200.228 234.185 199.374 234.615 198.622C235.057 197.87 235.654 197.279 236.406 196.849C237.158 196.407 238.006 196.186 238.949 196.186C239.893 196.186 240.734 196.407 241.474 196.849C242.227 197.279 242.818 197.87 243.248 198.622C243.689 199.374 243.916 200.228 243.928 201.183L243.373 201.613C243.373 202.472 243.17 203.248 242.764 203.941C242.37 204.621 241.827 205.165 241.134 205.571C240.454 205.965 239.678 206.162 238.806 206.162ZM238.949 204.908C239.642 204.908 240.257 204.747 240.794 204.424C241.343 204.102 241.773 203.66 242.083 203.099C242.406 202.526 242.567 201.887 242.567 201.183C242.567 200.467 242.406 199.828 242.083 199.267C241.773 198.705 241.343 198.264 240.794 197.941C240.257 197.607 239.642 197.44 238.949 197.44C238.269 197.44 237.654 197.607 237.105 197.941C236.555 198.264 236.12 198.705 235.797 199.267C235.475 199.828 235.314 200.467 235.314 201.183C235.314 201.887 235.475 202.526 235.797 203.099C236.12 203.66 236.555 204.102 237.105 204.424C237.654 204.747 238.269 204.908 238.949 204.908ZM243.23 206.072C243.027 206.072 242.859 206.012 242.728 205.893C242.597 205.762 242.531 205.595 242.531 205.392V202.329L242.871 200.914L243.928 201.183V205.392C243.928 205.595 243.862 205.762 243.731 205.893C243.6 206.012 243.433 206.072 243.23 206.072ZM238.931 194.682C238.752 194.682 238.597 194.616 238.466 194.485L236.442 192.479C236.323 192.336 236.263 192.175 236.263 191.995C236.263 191.792 236.329 191.625 236.46 191.494C236.591 191.351 236.752 191.279 236.943 191.279C237.134 191.279 237.302 191.351 237.445 191.494L239.451 193.518C239.57 193.613 239.63 193.763 239.63 193.965C239.63 194.168 239.564 194.342 239.433 194.485C239.302 194.616 239.134 194.682 238.931 194.682ZM249.762 206.162C249.058 206.162 248.359 206.042 247.667 205.804C246.974 205.565 246.413 205.207 245.983 204.729C245.852 204.586 245.798 204.424 245.822 204.245C245.846 204.066 245.936 203.911 246.091 203.78C246.258 203.66 246.431 203.613 246.61 203.636C246.789 203.66 246.938 203.738 247.058 203.869C247.344 204.204 247.72 204.46 248.186 204.639C248.664 204.818 249.189 204.908 249.762 204.908C250.646 204.908 251.284 204.759 251.678 204.46C252.072 204.15 252.275 203.78 252.287 203.35C252.287 202.92 252.084 202.568 251.678 202.293C251.272 202.007 250.604 201.786 249.673 201.631C248.467 201.44 247.583 201.105 247.022 200.628C246.461 200.15 246.18 199.583 246.18 198.926C246.18 198.317 246.341 197.81 246.664 197.404C246.986 196.998 247.416 196.694 247.953 196.491C248.491 196.288 249.082 196.186 249.726 196.186C250.526 196.186 251.213 196.324 251.786 196.598C252.371 196.873 252.843 197.243 253.201 197.709C253.32 197.864 253.368 198.025 253.344 198.192C253.32 198.359 253.225 198.497 253.057 198.604C252.914 198.688 252.747 198.717 252.556 198.694C252.377 198.658 252.222 198.568 252.09 198.425C251.792 198.079 251.446 197.828 251.052 197.673C250.658 197.506 250.204 197.422 249.691 197.422C249.034 197.422 248.509 197.559 248.114 197.834C247.72 198.097 247.523 198.431 247.523 198.837C247.523 199.111 247.595 199.35 247.738 199.553C247.894 199.756 248.15 199.935 248.509 200.09C248.879 200.246 249.392 200.377 250.049 200.484C250.944 200.628 251.649 200.843 252.162 201.129C252.687 201.404 253.057 201.732 253.272 202.114C253.499 202.484 253.613 202.89 253.613 203.332C253.613 203.893 253.445 204.389 253.111 204.818C252.789 205.236 252.335 205.565 251.75 205.804C251.177 206.042 250.514 206.162 249.762 206.162ZM265.021 206.162C264.102 206.162 263.278 205.947 262.55 205.517C261.822 205.075 261.243 204.478 260.813 203.726C260.395 202.974 260.186 202.126 260.186 201.183C260.186 200.228 260.401 199.374 260.831 198.622C261.272 197.87 261.869 197.279 262.622 196.849C263.374 196.407 264.221 196.186 265.165 196.186C266.108 196.186 266.95 196.407 267.69 196.849C268.442 197.279 269.033 197.87 269.463 198.622C269.905 199.374 270.131 200.228 270.143 201.183L269.588 201.613C269.588 202.472 269.385 203.248 268.979 203.941C268.585 204.621 268.042 205.165 267.35 205.571C266.669 205.965 265.893 206.162 265.021 206.162ZM265.165 204.908C265.857 204.908 266.472 204.747 267.009 204.424C267.559 204.102 267.988 203.66 268.299 203.099C268.621 202.526 268.782 201.887 268.782 201.183C268.782 200.467 268.621 199.828 268.299 199.267C267.988 198.705 267.559 198.264 267.009 197.941C266.472 197.607 265.857 197.44 265.165 197.44C264.484 197.44 263.869 197.607 263.32 197.941C262.771 198.264 262.335 198.705 262.013 199.267C261.69 199.828 261.529 200.467 261.529 201.183C261.529 201.887 261.69 202.526 262.013 203.099C262.335 203.66 262.771 204.102 263.32 204.424C263.869 204.747 264.484 204.908 265.165 204.908ZM269.445 206.072C269.242 206.072 269.075 206.012 268.944 205.893C268.812 205.762 268.747 205.595 268.747 205.392V202.329L269.087 200.914L270.143 201.183V205.392C270.143 205.595 270.078 205.762 269.946 205.893C269.815 206.012 269.648 206.072 269.445 206.072ZM276.819 206.18C275.972 206.18 275.213 206.006 274.545 205.66C273.876 205.302 273.345 204.783 272.951 204.102C272.569 203.422 272.378 202.592 272.378 201.613V196.956C272.378 196.765 272.443 196.604 272.575 196.473C272.706 196.341 272.867 196.276 273.058 196.276C273.261 196.276 273.428 196.341 273.56 196.473C273.691 196.604 273.757 196.765 273.757 196.956V201.613C273.757 202.353 273.894 202.962 274.169 203.439C274.455 203.917 274.837 204.275 275.315 204.514C275.804 204.753 276.354 204.872 276.963 204.872C277.548 204.872 278.073 204.759 278.539 204.532C279.016 204.305 279.392 203.995 279.667 203.601C279.941 203.207 280.079 202.759 280.079 202.257H281.064C281.028 203.01 280.819 203.684 280.437 204.281C280.067 204.866 279.565 205.332 278.933 205.678C278.3 206.012 277.595 206.18 276.819 206.18ZM280.759 206.072C280.556 206.072 280.389 206.012 280.258 205.893C280.138 205.762 280.079 205.589 280.079 205.374V196.956C280.079 196.753 280.138 196.592 280.258 196.473C280.389 196.341 280.556 196.276 280.759 196.276C280.962 196.276 281.129 196.341 281.261 196.473C281.392 196.592 281.458 196.753 281.458 196.956V205.374C281.458 205.589 281.392 205.762 281.261 205.893C281.129 206.012 280.962 206.072 280.759 206.072ZM286.522 206.072C286.044 206.072 285.614 205.941 285.232 205.678C284.862 205.415 284.57 205.051 284.355 204.586C284.152 204.12 284.05 203.583 284.05 202.974V192.766C284.05 192.563 284.11 192.401 284.229 192.282C284.361 192.151 284.528 192.085 284.731 192.085C284.934 192.085 285.095 192.151 285.214 192.282C285.346 192.401 285.411 192.563 285.411 192.766V202.974C285.411 203.487 285.513 203.905 285.716 204.227C285.931 204.55 286.199 204.711 286.522 204.711H286.969C287.149 204.711 287.292 204.777 287.399 204.908C287.507 205.027 287.56 205.189 287.56 205.392C287.56 205.595 287.483 205.762 287.328 205.893C287.184 206.012 286.993 206.072 286.755 206.072H286.522ZM292.968 206.162C292.049 206.162 291.225 205.947 290.497 205.517C289.768 205.075 289.189 204.478 288.76 203.726C288.342 202.974 288.133 202.126 288.133 201.183C288.133 200.228 288.348 199.374 288.777 198.622C289.219 197.87 289.816 197.279 290.568 196.849C291.321 196.407 292.168 196.186 293.111 196.186C294.055 196.186 294.896 196.407 295.637 196.849C296.389 197.279 296.98 197.87 297.41 198.622C297.851 199.374 298.078 200.228 298.09 201.183L297.535 201.613C297.535 202.472 297.332 203.248 296.926 203.941C296.532 204.621 295.989 205.165 295.296 205.571C294.616 205.965 293.84 206.162 292.968 206.162ZM293.111 204.908C293.804 204.908 294.419 204.747 294.956 204.424C295.505 204.102 295.935 203.66 296.246 203.099C296.568 202.526 296.729 201.887 296.729 201.183C296.729 200.467 296.568 199.828 296.246 199.267C295.935 198.705 295.505 198.264 294.956 197.941C294.419 197.607 293.804 197.44 293.111 197.44C292.431 197.44 291.816 197.607 291.267 197.941C290.718 198.264 290.282 198.705 289.959 199.267C289.637 199.828 289.476 200.467 289.476 201.183C289.476 201.887 289.637 202.526 289.959 203.099C290.282 203.66 290.718 204.102 291.267 204.424C291.816 204.747 292.431 204.908 293.111 204.908ZM297.392 206.072C297.189 206.072 297.022 206.012 296.89 205.893C296.759 205.762 296.693 205.595 296.693 205.392V202.329L297.034 200.914L298.09 201.183V205.392C298.09 205.595 298.025 205.762 297.893 205.893C297.762 206.012 297.595 206.072 297.392 206.072ZM303.924 206.162C303.22 206.162 302.521 206.042 301.829 205.804C301.136 205.565 300.575 205.207 300.145 204.729C300.014 204.586 299.96 204.424 299.984 204.245C300.008 204.066 300.098 203.911 300.253 203.78C300.42 203.66 300.593 203.613 300.772 203.636C300.951 203.66 301.101 203.738 301.22 203.869C301.507 204.204 301.883 204.46 302.348 204.639C302.826 204.818 303.351 204.908 303.924 204.908C304.808 204.908 305.447 204.759 305.841 204.46C306.235 204.15 306.438 203.78 306.45 203.35C306.45 202.92 306.247 202.568 305.841 202.293C305.435 202.007 304.766 201.786 303.835 201.631C302.629 201.44 301.745 201.105 301.184 200.628C300.623 200.15 300.342 199.583 300.342 198.926C300.342 198.317 300.504 197.81 300.826 197.404C301.148 196.998 301.578 196.694 302.115 196.491C302.653 196.288 303.244 196.186 303.889 196.186C304.688 196.186 305.375 196.324 305.948 196.598C306.533 196.873 307.005 197.243 307.363 197.709C307.482 197.864 307.53 198.025 307.506 198.192C307.482 198.359 307.387 198.497 307.22 198.604C307.076 198.688 306.909 198.717 306.718 198.694C306.539 198.658 306.384 198.568 306.253 198.425C305.954 198.079 305.608 197.828 305.214 197.673C304.82 197.506 304.366 197.422 303.853 197.422C303.196 197.422 302.671 197.559 302.277 197.834C301.883 198.097 301.686 198.431 301.686 198.837C301.686 199.111 301.757 199.35 301.901 199.553C302.056 199.756 302.313 199.935 302.671 200.09C303.041 200.246 303.554 200.377 304.211 200.484C305.106 200.628 305.811 200.843 306.324 201.129C306.85 201.404 307.22 201.732 307.435 202.114C307.661 202.484 307.775 202.89 307.775 203.332C307.775 203.893 307.608 204.389 307.273 204.818C306.951 205.236 306.497 205.565 305.912 205.804C305.339 206.042 304.677 206.162 303.924 206.162Z" fill="#766D77"/>
<line x1="60.0247" y1="388.935" x2="318.692" y2="388.935" stroke="#1E1E1E" stroke-width="0.596975"/>
<path d="M146.274 443.461C146.047 443.461 145.862 443.39 145.719 443.246C145.576 443.103 145.504 442.918 145.504 442.691V430.244C145.504 430.017 145.576 429.832 145.719 429.689C145.862 429.546 146.047 429.474 146.274 429.474H149.588C150.459 429.474 151.235 429.659 151.916 430.029C152.608 430.399 153.146 430.913 153.528 431.569C153.922 432.214 154.119 432.966 154.119 433.826C154.119 434.638 153.922 435.36 153.528 435.993C153.146 436.626 152.608 437.121 151.916 437.479C151.235 437.838 150.459 438.017 149.588 438.017H147.044V442.691C147.044 442.918 146.973 443.103 146.83 443.246C146.686 443.39 146.501 443.461 146.274 443.461ZM153.742 443.461C153.587 443.461 153.456 443.431 153.348 443.372C153.241 443.3 153.151 443.199 153.08 443.067L149.695 437.676L151.217 437.282L154.351 442.279C154.542 442.578 154.572 442.852 154.441 443.103C154.322 443.342 154.089 443.461 153.742 443.461ZM147.044 436.548H149.588C150.173 436.548 150.692 436.435 151.146 436.208C151.611 435.969 151.975 435.647 152.238 435.241C152.501 434.823 152.632 434.351 152.632 433.826C152.632 433.253 152.501 432.751 152.238 432.322C151.975 431.88 151.611 431.54 151.146 431.301C150.692 431.05 150.173 430.925 149.588 430.925H147.044V436.548ZM160.137 443.64C159.421 443.64 158.746 443.539 158.114 443.336C157.481 443.133 156.932 442.84 156.466 442.458C156.012 442.064 155.672 441.599 155.445 441.061C155.362 440.858 155.362 440.667 155.445 440.488C155.541 440.309 155.702 440.196 155.929 440.148C156.096 440.1 156.257 440.124 156.412 440.22C156.579 440.303 156.705 440.435 156.788 440.614C157.015 441.103 157.427 441.497 158.024 441.796C158.633 442.094 159.337 442.243 160.137 442.243C160.71 442.243 161.224 442.148 161.678 441.957C162.143 441.766 162.507 441.491 162.77 441.133C163.045 440.763 163.182 440.309 163.182 439.772C163.194 439.079 162.949 438.476 162.448 437.963C161.958 437.438 161.182 437.109 160.119 436.978C159.26 436.871 158.508 436.644 157.863 436.297C157.23 435.951 156.741 435.509 156.394 434.972C156.06 434.423 155.893 433.796 155.893 433.092C155.893 432.351 156.084 431.725 156.466 431.211C156.86 430.686 157.391 430.286 158.06 430.011C158.728 429.725 159.475 429.582 160.299 429.582C160.979 429.582 161.576 429.683 162.089 429.886C162.603 430.077 163.045 430.346 163.415 430.692C163.785 431.026 164.095 431.408 164.346 431.838C164.465 432.053 164.507 432.256 164.471 432.447C164.448 432.626 164.346 432.769 164.167 432.877C164.012 432.984 163.833 433.008 163.63 432.948C163.439 432.877 163.289 432.751 163.182 432.572C162.943 432.131 162.597 431.754 162.143 431.444C161.689 431.122 161.075 430.961 160.299 430.961C159.427 430.949 158.717 431.128 158.167 431.498C157.63 431.856 157.361 432.399 157.361 433.128C157.361 433.51 157.445 433.88 157.612 434.238C157.779 434.584 158.084 434.889 158.526 435.151C158.979 435.414 159.618 435.605 160.442 435.724C161.791 435.903 162.836 436.339 163.576 437.032C164.316 437.712 164.686 438.614 164.686 439.736C164.686 440.369 164.567 440.93 164.328 441.42C164.089 441.897 163.755 442.303 163.325 442.637C162.907 442.972 162.424 443.222 161.875 443.39C161.325 443.557 160.746 443.64 160.137 443.64ZM160.263 445.252C160.119 445.252 160 445.204 159.905 445.109C159.809 445.013 159.761 444.888 159.761 444.733V428.74C159.761 428.573 159.809 428.447 159.905 428.364C160 428.268 160.119 428.22 160.263 428.22C160.394 428.22 160.507 428.268 160.603 428.364C160.698 428.447 160.746 428.573 160.746 428.74V444.733C160.746 444.888 160.698 445.013 160.603 445.109C160.507 445.204 160.394 445.252 160.263 445.252ZM180.47 443.461C178.703 443.461 177.175 442.9 175.885 441.778C174.62 440.655 173.653 439.056 172.984 436.978C172.339 434.877 172.017 432.357 172.017 429.42C172.017 426.531 172.339 424.036 172.984 421.934C173.653 419.833 174.62 418.221 175.885 417.099C177.175 415.976 178.703 415.415 180.47 415.415C182.285 415.415 183.825 415.988 185.091 417.135C186.356 418.257 187.311 419.869 187.956 421.97C188.625 424.071 188.959 426.555 188.959 429.42C188.959 432.334 188.625 434.841 187.956 436.942C187.311 439.02 186.356 440.632 185.091 441.778C183.825 442.9 182.285 443.461 180.47 443.461ZM180.47 440.381C181.712 440.381 182.727 439.915 183.515 438.984C184.327 438.029 184.924 436.727 185.306 435.08C185.688 433.432 185.879 431.546 185.879 429.42C185.879 427.343 185.676 425.48 185.27 423.833C184.888 422.185 184.291 420.884 183.479 419.928C182.691 418.973 181.688 418.496 180.47 418.496C179.252 418.496 178.249 418.973 177.461 419.928C176.673 420.86 176.076 422.149 175.67 423.797C175.288 425.444 175.097 427.319 175.097 429.42C175.097 431.569 175.288 433.468 175.67 435.115C176.076 436.739 176.673 438.029 177.461 438.984C178.273 439.915 179.276 440.381 180.47 440.381ZM191.689 449.371C191.426 449.371 191.223 449.3 191.08 449.156C190.96 449.013 190.901 448.834 190.901 448.619C190.901 448.213 191.008 447.855 191.223 447.544C191.462 447.234 191.7 446.9 191.939 446.542C192.202 446.183 192.333 445.754 192.333 445.252C192.333 444.822 192.238 444.464 192.047 444.178C191.88 443.915 191.677 443.676 191.438 443.461C191.223 443.222 191.02 442.96 190.829 442.673C190.662 442.387 190.578 442.04 190.578 441.634C190.578 441.014 190.781 440.524 191.187 440.166C191.593 439.784 192.118 439.593 192.763 439.593C193.527 439.593 194.136 439.879 194.59 440.452C195.067 441.026 195.306 441.825 195.306 442.852C195.306 443.545 195.199 444.273 194.984 445.037C194.769 445.801 194.482 446.518 194.124 447.186C193.766 447.855 193.372 448.38 192.942 448.762C192.512 449.168 192.094 449.371 191.689 449.371ZM205.385 443.461C203.618 443.461 202.09 442.9 200.8 441.778C199.535 440.655 198.567 439.056 197.899 436.978C197.254 434.877 196.932 432.357 196.932 429.42C196.932 426.531 197.254 424.036 197.899 421.934C198.567 419.833 199.535 418.221 200.8 417.099C202.09 415.976 203.618 415.415 205.385 415.415C207.2 415.415 208.74 415.988 210.006 417.135C211.271 418.257 212.226 419.869 212.871 421.97C213.54 424.071 213.874 426.555 213.874 429.42C213.874 432.334 213.54 434.841 212.871 436.942C212.226 439.02 211.271 440.632 210.006 441.778C208.74 442.9 207.2 443.461 205.385 443.461ZM205.385 440.381C206.627 440.381 207.641 439.915 208.43 438.984C209.241 438.029 209.838 436.727 210.22 435.08C210.602 433.432 210.794 431.546 210.794 429.42C210.794 427.343 210.591 425.48 210.185 423.833C209.803 422.185 209.206 420.884 208.394 419.928C207.606 418.973 206.603 418.496 205.385 418.496C204.167 418.496 203.164 418.973 202.376 419.928C201.588 420.86 200.991 422.149 200.585 423.797C200.203 425.444 200.012 427.319 200.012 429.42C200.012 431.569 200.203 433.468 200.585 435.115C200.991 436.739 201.588 438.029 202.376 438.984C203.188 439.915 204.191 440.381 205.385 440.381ZM225.38 443.461C223.613 443.461 222.085 442.9 220.796 441.778C219.53 440.655 218.563 439.056 217.894 436.978C217.25 434.877 216.927 432.357 216.927 429.42C216.927 426.531 217.25 424.036 217.894 421.934C218.563 419.833 219.53 418.221 220.796 417.099C222.085 415.976 223.613 415.415 225.38 415.415C227.195 415.415 228.735 415.988 230.001 417.135C231.266 418.257 232.222 419.869 232.866 421.97C233.535 424.071 233.869 426.555 233.869 429.42C233.869 432.334 233.535 434.841 232.866 436.942C232.222 439.02 231.266 440.632 230.001 441.778C228.735 442.9 227.195 443.461 225.38 443.461ZM225.38 440.381C226.622 440.381 227.637 439.915 228.425 438.984C229.237 438.029 229.834 436.727 230.216 435.08C230.598 433.432 230.789 431.546 230.789 429.42C230.789 427.343 230.586 425.48 230.18 423.833C229.798 422.185 229.201 420.884 228.389 419.928C227.601 418.973 226.598 418.496 225.38 418.496C224.162 418.496 223.16 418.973 222.372 419.928C221.584 420.86 220.987 422.149 220.581 423.797C220.199 425.444 220.008 427.319 220.008 429.42C220.008 431.569 220.199 433.468 220.581 435.115C220.987 436.739 221.584 438.029 222.372 438.984C223.183 439.915 224.186 440.381 225.38 440.381Z" fill="#1E1E1E"/>
<path d="M155 473.869C154.761 473.869 154.57 473.798 154.426 473.654C154.295 473.523 154.229 473.338 154.229 473.099V464.736C154.241 463.804 154.462 462.969 154.892 462.228C155.334 461.476 155.925 460.885 156.665 460.455C157.405 460.014 158.241 459.793 159.172 459.793C160.128 459.793 160.975 460.014 161.715 460.455C162.468 460.885 163.059 461.476 163.488 462.228C163.93 462.981 164.151 463.834 164.151 464.789C164.151 465.733 163.942 466.58 163.524 467.332C163.118 468.085 162.557 468.682 161.841 469.123C161.124 469.553 160.313 469.768 159.405 469.768C158.629 469.768 157.925 469.607 157.292 469.285C156.659 468.95 156.146 468.514 155.752 467.977V473.099C155.752 473.338 155.68 473.523 155.537 473.654C155.394 473.798 155.214 473.869 155 473.869ZM159.172 468.407C159.841 468.407 160.438 468.252 160.963 467.941C161.501 467.619 161.918 467.183 162.217 466.634C162.527 466.085 162.683 465.47 162.683 464.789C162.683 464.097 162.527 463.482 162.217 462.945C161.918 462.395 161.501 461.96 160.963 461.637C160.438 461.315 159.841 461.154 159.172 461.154C158.528 461.154 157.937 461.315 157.399 461.637C156.874 461.96 156.462 462.395 156.164 462.945C155.865 463.482 155.716 464.097 155.716 464.789C155.716 465.47 155.865 466.085 156.164 466.634C156.462 467.183 156.874 467.619 157.399 467.941C157.925 468.252 158.516 468.407 159.172 468.407ZM171.065 469.768C170.098 469.768 169.238 469.553 168.486 469.123C167.746 468.694 167.161 468.103 166.731 467.35C166.301 466.598 166.086 465.745 166.086 464.789C166.086 463.822 166.301 462.963 166.731 462.21C167.161 461.458 167.746 460.867 168.486 460.437C169.238 460.008 170.098 459.793 171.065 459.793C172.02 459.793 172.868 460.008 173.608 460.437C174.348 460.867 174.933 461.458 175.363 462.21C175.793 462.963 176.014 463.822 176.026 464.789C176.026 465.745 175.811 466.598 175.381 467.35C174.951 468.103 174.36 468.694 173.608 469.123C172.868 469.553 172.02 469.768 171.065 469.768ZM171.065 468.407C171.734 468.407 172.331 468.252 172.856 467.941C173.381 467.619 173.793 467.189 174.092 466.652C174.39 466.103 174.539 465.482 174.539 464.789C174.539 464.097 174.39 463.476 174.092 462.927C173.793 462.378 173.381 461.948 172.856 461.637C172.331 461.315 171.734 461.154 171.065 461.154C170.396 461.154 169.794 461.315 169.256 461.637C168.731 461.948 168.313 462.378 168.003 462.927C167.704 463.476 167.555 464.097 167.555 464.789C167.555 465.482 167.704 466.103 168.003 466.652C168.313 467.189 168.731 467.619 169.256 467.941C169.794 468.252 170.396 468.407 171.065 468.407ZM179.102 463.607C179.126 462.879 179.311 462.228 179.658 461.655C180.016 461.07 180.481 460.611 181.055 460.276C181.64 459.942 182.278 459.775 182.971 459.775C183.58 459.775 184.039 459.864 184.35 460.043C184.672 460.223 184.792 460.467 184.708 460.778C184.672 460.945 184.595 461.064 184.475 461.136C184.368 461.208 184.236 461.243 184.081 461.243C183.938 461.243 183.771 461.231 183.58 461.208C182.875 461.124 182.248 461.172 181.699 461.351C181.162 461.518 180.732 461.799 180.41 462.193C180.087 462.587 179.926 463.058 179.926 463.607H179.102ZM179.192 469.679C178.953 469.679 178.768 469.613 178.637 469.482C178.505 469.35 178.44 469.165 178.44 468.926V460.634C178.44 460.396 178.505 460.211 178.637 460.079C178.768 459.948 178.953 459.882 179.192 459.882C179.431 459.882 179.61 459.948 179.729 460.079C179.861 460.211 179.926 460.396 179.926 460.634V468.926C179.926 469.165 179.861 469.35 179.729 469.482C179.61 469.613 179.431 469.679 179.192 469.679ZM204.637 469.679C204.41 469.679 204.225 469.613 204.082 469.482C203.938 469.338 203.867 469.153 203.867 468.926V463.786C203.867 462.963 203.658 462.324 203.24 461.87C202.822 461.416 202.279 461.19 201.61 461.19C200.906 461.19 200.327 461.428 199.873 461.906C199.431 462.384 199.21 463.01 199.21 463.786H197.903C197.915 462.986 198.088 462.288 198.422 461.691C198.757 461.082 199.216 460.611 199.801 460.276C200.398 459.942 201.073 459.775 201.825 459.775C202.518 459.775 203.132 459.936 203.67 460.258C204.207 460.581 204.625 461.046 204.923 461.655C205.234 462.252 205.389 462.963 205.389 463.786V468.926C205.389 469.153 205.317 469.338 205.174 469.482C205.031 469.613 204.852 469.679 204.637 469.679ZM192.279 469.679C192.041 469.679 191.85 469.613 191.706 469.482C191.575 469.338 191.509 469.153 191.509 468.926V460.652C191.509 460.425 191.575 460.24 191.706 460.097C191.85 459.954 192.041 459.882 192.279 459.882C192.506 459.882 192.685 459.954 192.817 460.097C192.96 460.24 193.032 460.425 193.032 460.652V468.926C193.032 469.153 192.96 469.338 192.817 469.482C192.685 469.613 192.506 469.679 192.279 469.679ZM198.458 469.679C198.243 469.679 198.064 469.613 197.921 469.482C197.778 469.338 197.706 469.153 197.706 468.926V463.786C197.706 462.963 197.491 462.324 197.061 461.87C196.643 461.416 196.106 461.19 195.449 461.19C194.745 461.19 194.166 461.422 193.712 461.888C193.258 462.354 193.032 462.963 193.032 463.715H191.993C192.017 462.939 192.184 462.258 192.494 461.673C192.805 461.076 193.235 460.611 193.784 460.276C194.333 459.942 194.96 459.775 195.664 459.775C196.357 459.775 196.972 459.936 197.509 460.258C198.046 460.581 198.464 461.046 198.763 461.655C199.061 462.252 199.21 462.963 199.21 463.786V468.926C199.21 469.153 199.139 469.338 198.995 469.482C198.864 469.613 198.685 469.679 198.458 469.679ZM212.648 469.768C211.669 469.768 210.804 469.559 210.051 469.141C209.299 468.711 208.708 468.12 208.278 467.368C207.849 466.616 207.634 465.756 207.634 464.789C207.634 463.81 207.837 462.951 208.243 462.21C208.649 461.458 209.204 460.867 209.908 460.437C210.625 460.008 211.448 459.793 212.38 459.793C213.287 459.793 214.075 460.002 214.744 460.42C215.424 460.825 215.944 461.393 216.302 462.121C216.672 462.849 216.857 463.679 216.857 464.61C216.857 464.813 216.791 464.98 216.66 465.112C216.529 465.231 216.361 465.291 216.158 465.291H208.672V464.055H216.248L215.478 464.592C215.49 463.936 215.37 463.345 215.12 462.819C214.869 462.294 214.511 461.882 214.045 461.584C213.58 461.285 213.024 461.136 212.38 461.136C211.699 461.136 211.102 461.291 210.589 461.602C210.087 461.912 209.699 462.348 209.425 462.909C209.162 463.458 209.031 464.085 209.031 464.789C209.031 465.494 209.186 466.121 209.496 466.67C209.807 467.219 210.231 467.649 210.768 467.959C211.317 468.27 211.944 468.425 212.648 468.425C213.054 468.425 213.466 468.353 213.884 468.21C214.314 468.067 214.654 467.888 214.905 467.673C215.048 467.565 215.209 467.512 215.388 467.512C215.579 467.5 215.735 467.547 215.854 467.655C216.033 467.81 216.123 467.977 216.123 468.156C216.135 468.335 216.057 468.491 215.89 468.622C215.496 468.956 214.994 469.231 214.385 469.446C213.777 469.661 213.197 469.768 212.648 469.768ZM210.213 458.432C209.986 458.432 209.795 458.372 209.64 458.252C209.496 458.133 209.425 457.972 209.425 457.769C209.425 457.494 209.55 457.273 209.801 457.106L211.878 455.727C211.986 455.668 212.111 455.638 212.254 455.638C212.338 455.638 212.409 455.65 212.469 455.674C212.529 455.685 212.589 455.703 212.648 455.727L214.708 457.106C214.959 457.273 215.084 457.494 215.084 457.769C215.084 457.96 215.012 458.121 214.869 458.252C214.726 458.372 214.541 458.432 214.314 458.432C214.23 458.432 214.147 458.42 214.063 458.396C213.991 458.372 213.92 458.33 213.848 458.27L212.254 457.16L210.66 458.27C210.517 458.378 210.368 458.432 210.213 458.432ZM222.377 469.768C221.637 469.768 220.914 469.649 220.21 469.41C219.517 469.159 218.962 468.807 218.544 468.353C218.401 468.198 218.341 468.019 218.365 467.816C218.389 467.613 218.485 467.446 218.652 467.315C218.843 467.171 219.034 467.112 219.225 467.135C219.428 467.159 219.595 467.243 219.726 467.386C219.989 467.697 220.353 467.947 220.819 468.138C221.284 468.317 221.798 468.407 222.359 468.407C223.183 468.407 223.786 468.27 224.168 467.995C224.562 467.709 224.765 467.356 224.777 466.938C224.777 466.533 224.58 466.192 224.186 465.918C223.804 465.643 223.147 465.428 222.216 465.273C221.01 465.07 220.126 464.73 219.565 464.252C219.016 463.775 218.741 463.201 218.741 462.533C218.741 461.924 218.908 461.416 219.243 461.011C219.577 460.605 220.013 460.3 220.55 460.097C221.099 459.894 221.69 459.793 222.323 459.793C223.123 459.793 223.815 459.93 224.401 460.205C224.986 460.467 225.457 460.825 225.815 461.279C225.947 461.446 226 461.625 225.977 461.816C225.965 461.996 225.869 462.139 225.69 462.246C225.535 462.354 225.35 462.39 225.135 462.354C224.932 462.318 224.759 462.222 224.615 462.067C224.317 461.745 223.977 461.512 223.595 461.369C223.213 461.213 222.777 461.136 222.287 461.136C221.666 461.136 221.165 461.261 220.783 461.512C220.401 461.751 220.21 462.061 220.21 462.443C220.21 462.706 220.275 462.933 220.407 463.124C220.55 463.315 220.795 463.488 221.141 463.643C221.499 463.786 222.007 463.918 222.663 464.037C223.559 464.192 224.263 464.413 224.777 464.7C225.302 464.974 225.672 465.297 225.887 465.667C226.114 466.037 226.227 466.449 226.227 466.903C226.227 467.464 226.066 467.959 225.744 468.389C225.433 468.807 224.992 469.141 224.418 469.392C223.845 469.643 223.165 469.768 222.377 469.768Z" fill="#766D77"/>
<defs>
<filter id="filter0_d_150_31" x="0.105879" y="0.105872" width="378.368" height="520.268" filterUnits="userSpaceOnUse" color-interpolation-filters="sRGB">
<feFlood flood-opacity="0" result="BackgroundImageFix"/>
<feColorMatrix in="SourceAlpha" type="matrix" values="0 0 0 0 0 0 0 0 0 0 0 0 0 0 0 0 0 0 127 0" result="hardAlpha"/>
<feMorphology radius="5.96975" operator="dilate" in="SourceAlpha" result="effect1_dropShadow_150_31"/>
<feOffset/>
<feGaussianBlur stdDeviation="7.46219"/>
<feComposite in2="hardAlpha" operator="out"/>
<feColorMatrix type="matrix" values="0 0 0 0 0.643137 0 0 0 0 0.631373 0 0 0 0 0.654902 0 0 0 0.15 0"/>
<feBlend mode="normal" in2="BackgroundImageFix" result="effect1_dropShadow_150_31"/>
<feBlend mode="normal" in="SourceGraphic" in2="effect1_dropShadow_150_31" result="shape"/>
</filter>
</defs>
</svg>
